<svg width="555" height="560" viewBox="0 0 555 560" fill="none" xmlns="http://www.w3.org/2000/svg">
<rect width="555" height="560" fill="white"/>
<path d="M71.5467 161.251C69.4085 153.319 73.7323 144.119 81.2042 140.703L174.606 98L167.836 108.761C167.36 109.519 166.735 110.155 166.018 110.613L81.2049 164.818C77.2937 167.317 72.7272 165.631 71.5467 161.251Z" fill="#8BC7FF"/>
<path d="M74.7567 177.109C73.1431 175.806 73.5142 172.878 75.4514 171.628L155.614 119.895C158.215 118.216 161.257 119.318 162.073 122.234L163.017 125.607C163.732 128.162 162.452 131.16 160.099 132.439L77.634 177.28C76.6498 177.816 75.5507 177.75 74.7567 177.109Z" fill="#8BC7FF"/>
<path d="M173.128 149.593C175.225 157.498 170.88 166.628 163.422 169.985L79.1199 207.927L85.0977 197.688C85.5776 196.866 86.2308 196.173 86.9908 195.68L163.432 146.047C167.35 143.502 171.959 145.188 173.128 149.593Z" fill="#8BC7FF"/>
<path d="M187.159 123.783C189.068 124.911 188.815 128.156 186.715 129.474L83.0409 194.569C80.4789 196.177 77.5226 195.093 76.6934 192.239L75.6931 188.798C74.9464 186.228 76.2213 183.183 78.5859 181.888L184.6 123.816C185.453 123.348 186.402 123.336 187.159 123.783Z" fill="#8BC7FF"/>
<path d="M83.8633 225.389C81.7155 217.421 86.0588 208.179 93.5643 204.748L196.835 157.533L189.172 168.798C188.7 169.492 188.102 170.072 187.425 170.494L93.4863 229.021C89.5679 231.462 85.0396 229.753 83.8633 225.389Z" fill="#8BC7FF"/>
<path d="M75.0213 247.118C73.2267 245.901 73.5502 242.777 75.6027 241.504L170.615 182.555C173.205 180.948 176.186 182.066 176.992 184.945L177.955 188.386C178.674 190.955 177.375 193.97 175.002 195.237L77.7072 247.182C76.8001 247.666 75.7938 247.642 75.0213 247.118Z" fill="#8BC7FF"/>
<path d="M196.222 208.714C198.332 216.665 193.961 225.848 186.46 229.224L91.4192 272L98.3636 261.207C98.8431 260.462 99.4675 259.837 100.181 259.388L186.57 205.082C190.498 202.613 195.059 204.329 196.222 208.714Z" fill="#8BC7FF"/>
<path d="M173.627 200.971C175.226 202.26 174.881 205.166 172.979 206.44L95.4241 258.384C92.8447 260.112 89.7897 259.055 88.9431 256.142L87.975 252.811C87.2353 250.266 88.479 247.248 90.81 245.933L170.735 200.826C171.72 200.27 172.827 200.326 173.627 200.971Z" fill="#8BC7FF"/>
<mask id="path-2-outside-1_2_2" maskUnits="userSpaceOnUse" x="27" y="151" width="214" height="54" fill="black">
<rect fill="white" x="27" y="151" width="214" height="54"/>
<path d="M56.93 187.114C56.93 180.415 61.2327 174.984 66.5403 174.984H159.04C164.347 174.984 168.65 180.415 168.65 187.114C168.65 193.814 164.347 199.244 159.04 199.244H66.5403C61.2327 199.244 56.93 193.814 56.93 187.114Z"/>
<path d="M36.2418 196.729C34.6549 196.729 33.2386 196.169 31.9929 195.049C30.7558 193.918 29.7789 192.383 29.0622 190.445C28.3541 188.507 28 186.315 28 183.871C28 181.448 28.3541 179.267 29.0622 177.328C29.7704 175.379 30.743 173.839 31.9801 172.708C33.2258 171.578 34.6464 171.012 36.2418 171.012C37.4192 171.012 38.4985 171.335 39.4797 171.982C40.4694 172.617 41.297 173.511 41.9625 174.663C42.628 175.805 43.0588 177.129 43.255 178.637H42.3848C42.1203 176.688 41.4164 175.105 40.2731 173.888C39.1384 172.66 37.7946 172.046 36.2418 172.046C34.8341 172.046 33.5671 172.563 32.4409 173.597C31.3232 174.62 30.4401 176.025 29.7917 177.813C29.1433 179.59 28.8191 181.609 28.8191 183.871C28.8191 186.067 29.1305 188.06 29.7533 189.847C30.3847 191.635 31.2592 193.057 32.3769 194.112C33.4945 195.167 34.7829 195.695 36.2418 195.695C37.2912 195.695 38.2554 195.42 39.1341 194.871C40.0129 194.311 40.7424 193.525 41.3226 192.513C41.9113 191.5 42.2824 190.321 42.436 188.975H43.3062C43.1185 190.537 42.6919 191.899 42.0265 193.062C41.361 194.225 40.5291 195.13 39.5309 195.776C38.5326 196.411 37.4363 196.729 36.2418 196.729Z"/>
<path d="M49.9163 163.129V196.212H49.0973V163.129H49.9163Z"/>
<path d="M178.274 169.884V170.918H170.493V169.884H178.274ZM173.36 163.939H174.179V189.462C174.179 190.431 174.349 191.266 174.691 191.966C175.032 192.655 175.484 193.188 176.047 193.565C176.61 193.931 177.216 194.114 177.865 194.114C178.112 194.114 178.338 194.087 178.543 194.033C178.756 193.979 178.974 193.899 179.196 193.791L179.452 194.76C179.196 194.879 178.944 194.97 178.696 195.035C178.449 195.11 178.172 195.148 177.865 195.148C177.063 195.148 176.316 194.916 175.625 194.453C174.942 193.99 174.392 193.333 173.974 192.483C173.565 191.632 173.36 190.625 173.36 189.462V163.939Z"/>
<path d="M185.902 178.025V194.696H185.083V161.613H185.902V173.825H186.004C186.465 172.533 187.22 171.499 188.269 170.724C189.327 169.948 190.534 169.561 191.891 169.561C193.205 169.561 194.365 169.921 195.372 170.643C196.379 171.364 197.168 172.361 197.74 173.631C198.311 174.902 198.597 176.367 198.597 178.025V194.696H197.778V178.025C197.778 175.828 197.232 174.041 196.14 172.662C195.048 171.284 193.632 170.594 191.891 170.594C190.731 170.594 189.698 170.912 188.794 171.548C187.898 172.183 187.19 173.061 186.67 174.181C186.158 175.301 185.902 176.582 185.902 178.025Z"/>
<path d="M205.668 194.696V169.884H206.487V194.696H205.668ZM206.077 165.361C205.856 165.361 205.664 165.258 205.502 165.054C205.339 164.849 205.258 164.607 205.258 164.327C205.258 164.047 205.339 163.805 205.502 163.6C205.664 163.395 205.856 163.293 206.077 163.293C206.299 163.293 206.491 163.395 206.653 163.6C206.816 163.805 206.897 164.047 206.897 164.327C206.897 164.607 206.816 164.849 206.653 165.054C206.491 165.258 206.299 165.361 206.077 165.361Z"/>
<path d="M220.312 169.884V170.918H212.531V169.884H220.312ZM215.244 194.696V165.813C215.244 164.65 215.449 163.643 215.858 162.792C216.276 161.942 216.827 161.285 217.509 160.822C218.2 160.359 218.947 160.127 219.749 160.127C220.056 160.127 220.333 160.159 220.581 160.224C220.828 160.289 221.071 160.375 221.31 160.482L221.054 161.452C220.841 161.365 220.632 161.295 220.427 161.242C220.222 161.188 219.996 161.161 219.749 161.161C218.768 161.161 217.906 161.575 217.164 162.405C216.43 163.234 216.063 164.37 216.063 165.813L216.037 194.696H215.244Z"/>
<path d="M226.381 204C226.049 204 225.694 203.941 225.319 203.822C224.944 203.715 224.564 203.558 224.18 203.354L224.487 202.449C225.332 202.902 226.1 203.063 226.791 202.934C227.49 202.815 228.105 202.412 228.634 201.722C229.171 201.033 229.615 200.069 229.965 198.831L231.014 195.148L223.847 169.884H224.718L231.372 193.403H231.475L238.13 169.884H239L230.733 199.219C230.442 200.252 230.08 201.125 229.645 201.835C229.21 202.546 228.715 203.085 228.16 203.451C227.614 203.817 227.021 204 226.381 204Z"/>
</mask>
<path d="M36.2418 196.729C34.6549 196.729 33.2386 196.169 31.9929 195.049C30.7558 193.918 29.7789 192.383 29.0622 190.445C28.3541 188.507 28 186.315 28 183.871C28 181.448 28.3541 179.267 29.0622 177.328C29.7704 175.379 30.743 173.839 31.9801 172.708C33.2258 171.578 34.6464 171.012 36.2418 171.012C37.4192 171.012 38.4985 171.335 39.4797 171.982C40.4694 172.617 41.297 173.511 41.9625 174.663C42.628 175.805 43.0588 177.129 43.255 178.637H42.3848C42.1203 176.688 41.4164 175.105 40.2731 173.888C39.1384 172.66 37.7946 172.046 36.2418 172.046C34.8341 172.046 33.5671 172.563 32.4409 173.597C31.3232 174.62 30.4401 176.025 29.7917 177.813C29.1433 179.59 28.8191 181.609 28.8191 183.871C28.8191 186.067 29.1305 188.06 29.7533 189.847C30.3847 191.635 31.2592 193.057 32.3769 194.112C33.4945 195.167 34.7829 195.695 36.2418 195.695C37.2912 195.695 38.2554 195.42 39.1341 194.871C40.0129 194.311 40.7424 193.525 41.3226 192.513C41.9113 191.5 42.2824 190.321 42.436 188.975H43.3062C43.1185 190.537 42.6919 191.899 42.0265 193.062C41.361 194.225 40.5291 195.13 39.5309 195.776C38.5326 196.411 37.4363 196.729 36.2418 196.729Z" fill="black"/>
<path d="M49.9163 163.129V196.212H49.0973V163.129H49.9163Z" fill="black"/>
<path d="M178.274 169.884V170.918H170.493V169.884H178.274ZM173.36 163.939H174.179V189.462C174.179 190.431 174.349 191.266 174.691 191.966C175.032 192.655 175.484 193.188 176.047 193.565C176.61 193.931 177.216 194.114 177.865 194.114C178.112 194.114 178.338 194.087 178.543 194.033C178.756 193.979 178.974 193.899 179.196 193.791L179.452 194.76C179.196 194.879 178.944 194.97 178.696 195.035C178.449 195.11 178.172 195.148 177.865 195.148C177.063 195.148 176.316 194.916 175.625 194.453C174.942 193.99 174.392 193.333 173.974 192.483C173.565 191.632 173.36 190.625 173.36 189.462V163.939Z" fill="black"/>
<path d="M185.902 178.025V194.696H185.083V161.613H185.902V173.825H186.004C186.465 172.533 187.22 171.499 188.269 170.724C189.327 169.948 190.534 169.561 191.891 169.561C193.205 169.561 194.365 169.921 195.372 170.643C196.379 171.364 197.168 172.361 197.74 173.631C198.311 174.902 198.597 176.367 198.597 178.025V194.696H197.778V178.025C197.778 175.828 197.232 174.041 196.14 172.662C195.048 171.284 193.632 170.594 191.891 170.594C190.731 170.594 189.698 170.912 188.794 171.548C187.898 172.183 187.19 173.061 186.67 174.181C186.158 175.301 185.902 176.582 185.902 178.025Z" fill="black"/>
<path d="M205.668 194.696V169.884H206.487V194.696H205.668ZM206.077 165.361C205.856 165.361 205.664 165.258 205.502 165.054C205.339 164.849 205.258 164.607 205.258 164.327C205.258 164.047 205.339 163.805 205.502 163.6C205.664 163.395 205.856 163.293 206.077 163.293C206.299 163.293 206.491 163.395 206.653 163.6C206.816 163.805 206.897 164.047 206.897 164.327C206.897 164.607 206.816 164.849 206.653 165.054C206.491 165.258 206.299 165.361 206.077 165.361Z" fill="black"/>
<path d="M220.312 169.884V170.918H212.531V169.884H220.312ZM215.244 194.696V165.813C215.244 164.65 215.449 163.643 215.858 162.792C216.276 161.942 216.827 161.285 217.509 160.822C218.2 160.359 218.947 160.127 219.749 160.127C220.056 160.127 220.333 160.159 220.581 160.224C220.828 160.289 221.071 160.375 221.31 160.482L221.054 161.452C220.841 161.365 220.632 161.295 220.427 161.242C220.222 161.188 219.996 161.161 219.749 161.161C218.768 161.161 217.906 161.575 217.164 162.405C216.43 163.234 216.063 164.37 216.063 165.813L216.037 194.696H215.244Z" fill="black"/>
<path d="M226.381 204C226.049 204 225.694 203.941 225.319 203.822C224.944 203.715 224.564 203.558 224.18 203.354L224.487 202.449C225.332 202.902 226.1 203.063 226.791 202.934C227.49 202.815 228.105 202.412 228.634 201.722C229.171 201.033 229.615 200.069 229.965 198.831L231.014 195.148L223.847 169.884H224.718L231.372 193.403H231.475L238.13 169.884H239L230.733 199.219C230.442 200.252 230.08 201.125 229.645 201.835C229.21 202.546 228.715 203.085 228.16 203.451C227.614 203.817 227.021 204 226.381 204Z" fill="black"/>
<path d="M121.272 164.024L120.78 163.933L121.272 164.024ZM107.233 157.702C109.008 155.115 110.87 153.61 112.602 152.935C114.322 152.263 115.934 152.4 117.276 153.135C119.974 154.613 121.757 158.642 120.78 163.933L121.764 164.115C122.786 158.575 120.97 154.018 117.756 152.258C116.142 151.374 114.219 151.23 112.238 152.003C110.267 152.772 108.26 154.438 106.409 157.136L107.233 157.702ZM120.78 163.933C119.796 169.265 117.882 172.32 116.253 174.036C115.436 174.895 114.685 175.424 114.147 175.736C113.878 175.892 113.662 175.994 113.516 176.056C113.444 176.087 113.389 176.107 113.355 176.12C113.337 176.126 113.325 176.13 113.318 176.132C113.315 176.134 113.312 176.134 113.312 176.134C113.311 176.135 113.311 176.135 113.312 176.135C113.312 176.134 113.312 176.134 113.312 176.134C113.312 176.134 113.313 176.134 113.313 176.134C113.313 176.134 113.314 176.134 113.458 176.613C113.603 177.091 113.603 177.091 113.604 177.091C113.604 177.091 113.604 177.091 113.605 177.091C113.605 177.09 113.606 177.09 113.607 177.09C113.609 177.089 113.611 177.089 113.613 177.088C113.618 177.086 113.624 177.084 113.632 177.082C113.647 177.077 113.668 177.07 113.693 177.061C113.745 177.042 113.817 177.014 113.907 176.976C114.088 176.899 114.342 176.779 114.649 176.601C115.263 176.245 116.091 175.658 116.978 174.724C118.756 172.853 120.748 169.615 121.764 164.115L120.78 163.933ZM31.9929 195.049L31.3183 195.787L31.3243 195.792L31.9929 195.049ZM29.0622 190.445L28.1229 190.788L28.1243 190.792L29.0622 190.445ZM29.0622 177.328L30.0015 177.672L30.0021 177.67L29.0622 177.328ZM31.9801 172.708L31.308 171.968L31.3055 171.97L31.9801 172.708ZM39.4797 171.982L38.9296 172.817L38.9394 172.823L39.4797 171.982ZM41.9625 174.663L41.0965 175.163L41.0986 175.167L41.9625 174.663ZM43.255 178.637V179.637H44.3936L44.2467 178.508L43.255 178.637ZM42.3848 178.637L41.3939 178.771L41.5113 179.637H42.3848V178.637ZM40.2731 173.888L39.5388 174.566L39.5443 174.572L40.2731 173.888ZM32.4409 173.597L33.116 174.335L33.1171 174.334L32.4409 173.597ZM29.7917 177.813L30.7311 178.156L30.7318 178.154L29.7917 177.813ZM29.7533 189.847L28.809 190.176L28.8104 190.18L29.7533 189.847ZM39.1341 194.871L39.6641 195.719L39.6715 195.714L39.1341 194.871ZM41.3226 192.513L40.4581 192.01L40.455 192.015L41.3226 192.513ZM42.436 188.975V187.975H41.5436L41.4424 188.862L42.436 188.975ZM43.3062 188.975L44.2991 189.094L44.4336 187.975H43.3062V188.975ZM42.0265 193.062L41.1585 192.565L41.1585 192.565L42.0265 193.062ZM39.5309 195.776L40.0678 196.619L40.0743 196.615L39.5309 195.776ZM49.9163 163.129H50.9163V162.129H49.9163V163.129ZM49.9163 196.212V197.212H50.9163V196.212H49.9163ZM49.0973 196.212H48.0973V197.212H49.0973V196.212ZM49.0973 163.129V162.129H48.0973V163.129H49.0973ZM178.274 169.884H179.274V168.884H178.274V169.884ZM178.274 170.918V171.918H179.274V170.918H178.274ZM170.493 170.918H169.493V171.918H170.493V170.918ZM170.493 169.884V168.884H169.493V169.884H170.493ZM173.36 163.939V162.939H172.36V163.939H173.36ZM174.179 163.939H175.179V162.939H174.179V163.939ZM174.691 191.966L173.792 192.404L173.795 192.409L174.691 191.966ZM176.047 193.565L175.491 194.396L175.502 194.403L176.047 193.565ZM178.543 194.033L178.298 193.064L178.289 193.066L178.543 194.033ZM179.196 193.791L180.162 193.536L179.852 192.361L178.759 192.891L179.196 193.791ZM179.452 194.76L179.872 195.668L180.632 195.316L180.418 194.505L179.452 194.76ZM178.696 195.035L178.444 194.067L178.424 194.072L178.405 194.078L178.696 195.035ZM175.625 194.453L175.064 195.281L175.068 195.284L175.625 194.453ZM173.974 192.483L173.073 192.916L173.077 192.924L173.974 192.483ZM185.902 194.696V195.696H186.902V194.696H185.902ZM185.083 194.696H184.083V195.696H185.083V194.696ZM185.083 161.613V160.613H184.083V161.613H185.083ZM185.902 161.613H186.902V160.613H185.902V161.613ZM185.902 173.825H184.902V174.825H185.902V173.825ZM186.004 173.825V174.825H186.709L186.946 174.161L186.004 173.825ZM188.269 170.724L187.678 169.917L187.675 169.919L188.269 170.724ZM195.372 170.643L195.955 169.83L195.955 169.83L195.372 170.643ZM197.74 173.631L196.828 174.042L196.828 174.042L197.74 173.631ZM198.597 194.696V195.696H199.597V194.696H198.597ZM197.778 194.696H196.778V195.696H197.778V194.696ZM196.14 172.662L195.356 173.283L195.356 173.283L196.14 172.662ZM188.794 171.548L188.219 170.729L188.215 170.732L188.794 171.548ZM186.67 174.181L185.763 173.759L185.76 173.765L186.67 174.181ZM205.668 194.696H204.668V195.696H205.668V194.696ZM205.668 169.884V168.884H204.668V169.884H205.668ZM206.487 169.884H207.487V168.884H206.487V169.884ZM206.487 194.696V195.696H207.487V194.696H206.487ZM205.502 165.054L206.285 164.433L206.285 164.433L205.502 165.054ZM205.502 163.6L206.285 164.221L206.285 164.221L205.502 163.6ZM206.653 163.6L205.87 164.221L205.87 164.221L206.653 163.6ZM206.653 165.054L205.87 164.433L205.87 164.433L206.653 165.054ZM220.312 169.884H221.312V168.884H220.312V169.884ZM220.312 170.918V171.918H221.312V170.918H220.312ZM212.531 170.918H211.531V171.918H212.531V170.918ZM212.531 169.884V168.884H211.531V169.884H212.531ZM215.244 194.696H214.244V195.696H215.244V194.696ZM215.858 162.792L214.961 162.351L214.957 162.359L215.858 162.792ZM217.509 160.822L216.953 159.991L216.948 159.994L217.509 160.822ZM220.581 160.224L220.833 159.256L220.833 159.256L220.581 160.224ZM221.31 160.482L222.277 160.738L222.493 159.919L221.721 159.571L221.31 160.482ZM221.054 161.452L220.68 162.379L221.731 162.804L222.021 161.707L221.054 161.452ZM217.164 162.405L216.419 161.738L216.415 161.742L217.164 162.405ZM216.063 165.813L217.063 165.814V165.813H216.063ZM216.037 194.696V195.696H217.037L217.037 194.696L216.037 194.696ZM225.319 203.822L225.62 202.869L225.607 202.865L225.595 202.861L225.319 203.822ZM224.18 203.354L223.233 203.032L222.96 203.837L223.71 204.236L224.18 203.354ZM224.487 202.449L224.959 201.568L223.92 201.011L223.54 202.128L224.487 202.449ZM226.791 202.934L226.624 201.948L226.615 201.949L226.607 201.951L226.791 202.934ZM228.634 201.722L227.845 201.107L227.84 201.114L228.634 201.722ZM229.965 198.831L229.003 198.557L229.002 198.559L229.965 198.831ZM231.014 195.148L231.976 195.422L232.054 195.148L231.976 194.875L231.014 195.148ZM223.847 169.884V168.884H222.524L222.885 170.157L223.847 169.884ZM224.718 169.884L225.68 169.611L225.474 168.884H224.718V169.884ZM231.372 193.403L230.41 193.676L230.616 194.403H231.372V193.403ZM231.475 193.403V194.403H232.231L232.437 193.676L231.475 193.403ZM238.13 169.884V168.884H237.373L237.167 169.611L238.13 169.884ZM239 169.884L239.963 170.155L240.321 168.884H239V169.884ZM230.733 199.219L229.77 198.947L229.77 198.948L230.733 199.219ZM228.16 203.451L227.609 202.616L227.603 202.62L228.16 203.451ZM66.5403 175.984H159.04V173.984H66.5403V175.984ZM159.04 198.244H66.5403V200.244H159.04V198.244ZM66.5403 198.244C61.9895 198.244 57.93 193.491 57.93 187.114H55.93C55.93 194.136 60.4758 200.244 66.5403 200.244V198.244ZM167.65 187.114C167.65 193.491 163.591 198.244 159.04 198.244V200.244C165.104 200.244 169.65 194.136 169.65 187.114H167.65ZM159.04 175.984C163.591 175.984 167.65 180.737 167.65 187.114H169.65C169.65 180.092 165.104 173.984 159.04 173.984V175.984ZM66.5403 173.984C60.4758 173.984 55.93 180.092 55.93 187.114H57.93C57.93 180.737 61.9895 175.984 66.5403 175.984V173.984ZM36.2418 195.729C34.9164 195.729 33.7348 195.27 32.6615 194.305L31.3243 195.792C32.7424 197.067 34.3934 197.729 36.2418 197.729V195.729ZM32.6676 194.311C31.5725 193.31 30.6742 191.921 30.0002 190.098L28.1243 190.792C28.8836 192.846 29.9391 194.526 31.3183 195.787L32.6676 194.311ZM30.0015 190.102C29.3402 188.292 29 186.219 29 183.871H27C27 186.411 27.368 188.722 28.1229 190.788L30.0015 190.102ZM29 183.871C29 181.545 29.3398 179.483 30.0015 177.672L28.1229 176.985C27.3683 179.051 27 181.35 27 183.871H29ZM30.0021 177.67C30.668 175.837 31.5618 174.446 32.6548 173.447L31.3055 171.97C29.9242 173.233 28.8727 174.921 28.1223 176.987L30.0021 177.67ZM32.6523 173.449C33.7249 172.475 34.9093 172.012 36.2418 172.012V170.012C34.3834 170.012 32.7267 170.68 31.308 171.968L32.6523 173.449ZM36.2418 172.012C37.2242 172.012 38.1122 172.278 38.9297 172.817L40.0297 171.146C38.8848 170.392 37.6143 170.012 36.2418 170.012V172.012ZM38.9394 172.823C39.7781 173.361 40.5002 174.131 41.0965 175.163L42.8284 174.163C42.0937 172.891 41.1606 171.872 40.0199 171.14L38.9394 172.823ZM41.0986 175.167C41.6876 176.177 42.0818 177.371 42.2634 178.766L44.2467 178.508C44.0358 176.888 43.5683 175.432 42.8264 174.159L41.0986 175.167ZM43.255 177.637H42.3848V179.637H43.255V177.637ZM43.3757 178.502C43.0884 176.385 42.3118 174.597 41.002 173.203L39.5443 174.572C40.5211 175.612 41.1522 176.991 41.3939 178.771L43.3757 178.502ZM41.0075 173.209C39.6997 171.794 38.0965 171.046 36.2418 171.046V173.046C37.4927 173.046 38.5771 173.526 39.5388 174.566L41.0075 173.209ZM36.2418 171.046C34.5611 171.046 33.0581 171.673 31.7646 172.86L33.1171 174.334C34.0761 173.453 35.107 173.046 36.2418 173.046V171.046ZM31.7657 172.859C30.5025 174.016 29.5413 175.571 28.8516 177.472L30.7318 178.154C31.3389 176.48 32.1439 175.224 33.116 174.335L31.7657 172.859ZM28.8523 177.47C28.1568 179.376 27.8191 181.514 27.8191 183.871H29.8191C29.8191 181.704 30.1297 179.804 30.7311 178.156L28.8523 177.47ZM27.8191 183.871C27.8191 186.162 28.1439 188.267 28.809 190.176L30.6976 189.518C30.117 187.852 29.8191 185.973 29.8191 183.871H27.8191ZM28.8104 190.18C29.4825 192.084 30.4332 193.652 31.6903 194.839L33.0634 193.385C32.0852 192.461 31.2868 191.187 30.6962 189.514L28.8104 190.18ZM31.6903 194.839C32.9827 196.059 34.5129 196.695 36.2418 196.695V194.695C35.0529 194.695 34.0064 194.275 33.0634 193.385L31.6903 194.839ZM36.2418 196.695C37.4761 196.695 38.6243 196.369 39.6641 195.719L38.6042 194.023C37.8864 194.472 37.1063 194.695 36.2418 194.695V196.695ZM39.6715 195.714C40.7024 195.058 41.5393 194.146 42.1902 193.01L40.455 192.015C39.9455 192.904 39.3234 193.565 38.5967 194.028L39.6715 195.714ZM42.187 193.015C42.8553 191.866 43.2627 190.55 43.4295 189.088L41.4424 188.862C41.3021 190.092 40.9673 191.134 40.4581 192.01L42.187 193.015ZM42.436 189.975H43.3062V187.975H42.436V189.975ZM42.3134 188.856C42.1389 190.307 41.747 191.537 41.1585 192.565L42.8944 193.559C43.6369 192.261 44.0982 190.766 44.2991 189.094L42.3134 188.856ZM41.1585 192.565C40.5621 193.608 39.8355 194.387 38.9875 194.936L40.0743 196.615C41.2227 195.872 42.1598 194.842 42.8944 193.559L41.1585 192.565ZM38.9939 194.932C38.1577 195.464 37.248 195.729 36.2418 195.729V197.729C37.6246 197.729 38.9075 197.358 40.0678 196.619L38.9939 194.932ZM48.9163 163.129V196.212H50.9163V163.129H48.9163ZM49.9163 195.212H49.0973V197.212H49.9163V195.212ZM50.0973 196.212V163.129H48.0973V196.212H50.0973ZM49.0973 164.129H49.9163V162.129H49.0973V164.129ZM177.274 169.884V170.918H179.274V169.884H177.274ZM178.274 169.918H170.493V171.918H178.274V169.918ZM171.493 170.918V169.884H169.493V170.918H171.493ZM170.493 170.884H178.274V168.884H170.493V170.884ZM173.36 164.939H174.179V162.939H173.36V164.939ZM173.179 163.939V189.462H175.179V163.939H173.179ZM173.179 189.462C173.179 190.547 173.37 191.538 173.792 192.404L175.59 191.527C175.329 190.993 175.179 190.315 175.179 189.462H173.179ZM173.795 192.409C174.203 193.234 174.764 193.909 175.491 194.396L176.604 192.734C176.204 192.467 175.861 192.076 175.587 191.522L173.795 192.409ZM175.502 194.403C176.221 194.871 177.015 195.114 177.865 195.114V193.114C177.417 193.114 176.999 192.991 176.592 192.726L175.502 194.403ZM177.865 195.114C178.184 195.114 178.497 195.079 178.797 195L178.289 193.066C178.179 193.095 178.04 193.114 177.865 193.114V195.114ZM178.788 195.003C179.075 194.93 179.356 194.825 179.632 194.691L178.759 192.891C178.591 192.973 178.438 193.028 178.298 193.064L178.788 195.003ZM178.229 194.046L178.485 195.016L180.418 194.505L180.162 193.536L178.229 194.046ZM179.032 193.853C178.824 193.949 178.628 194.019 178.444 194.067L178.949 196.002C179.26 195.921 179.567 195.809 179.872 195.668L179.032 193.853ZM178.405 194.078C178.268 194.12 178.091 194.148 177.865 194.148V196.148C178.253 196.148 178.63 196.1 178.988 195.991L178.405 194.078ZM177.865 194.148C177.269 194.148 176.715 193.98 176.182 193.623L175.068 195.284C175.918 195.853 176.857 196.148 177.865 196.148V194.148ZM176.186 193.626C175.668 193.274 175.225 192.76 174.872 192.042L173.077 192.924C173.56 193.907 174.217 194.706 175.064 195.281L176.186 193.626ZM174.875 192.049C174.544 191.361 174.36 190.509 174.36 189.462H172.36C172.36 190.741 172.585 191.903 173.073 192.916L174.875 192.049ZM174.36 189.462V163.939H172.36V189.462H174.36ZM184.902 178.025V194.696H186.902V178.025H184.902ZM185.902 193.696H185.083V195.696H185.902V193.696ZM186.083 194.696V161.613H184.083V194.696H186.083ZM185.083 162.613H185.902V160.613H185.083V162.613ZM184.902 161.613V173.825H186.902V161.613H184.902ZM185.902 174.825H186.004V172.825H185.902V174.825ZM186.946 174.161C187.344 173.046 187.982 172.179 188.864 171.528L187.675 169.919C186.457 170.819 185.586 172.02 185.062 173.489L186.946 174.161ZM188.86 171.53C189.741 170.885 190.739 170.561 191.891 170.561V168.561C190.33 168.561 188.914 169.012 187.678 169.917L188.86 171.53ZM191.891 170.561C193.009 170.561 193.963 170.864 194.79 171.456L195.955 169.83C194.767 168.979 193.4 168.561 191.891 168.561V170.561ZM194.79 171.456C195.636 172.062 196.319 172.911 196.828 174.042L198.652 173.221C198.017 171.81 197.122 170.667 195.955 169.83L194.79 171.456ZM196.828 174.042C197.331 175.161 197.597 176.482 197.597 178.025H199.597C199.597 176.252 199.291 174.643 198.652 173.221L196.828 174.042ZM197.597 178.025V194.696H199.597V178.025H197.597ZM198.597 193.696H197.778V195.696H198.597V193.696ZM198.778 194.696V178.025H196.778V194.696H198.778ZM198.778 178.025C198.778 175.66 198.188 173.637 196.924 172.041L195.356 173.283C196.276 174.445 196.778 175.996 196.778 178.025H198.778ZM196.924 172.041C195.644 170.426 193.941 169.594 191.891 169.594V171.594C193.322 171.594 194.451 172.141 195.356 173.283L196.924 172.041ZM191.891 169.594C190.536 169.594 189.301 169.97 188.219 170.729L189.369 172.366C190.096 171.855 190.926 171.594 191.891 171.594V169.594ZM188.215 170.732C187.161 171.48 186.347 172.501 185.763 173.759L187.576 174.602C188.033 173.62 188.636 172.886 189.372 172.363L188.215 170.732ZM185.76 173.765C185.179 175.036 184.902 176.463 184.902 178.025H186.902C186.902 176.701 187.136 175.565 187.579 174.596L185.76 173.765ZM206.668 194.696V169.884H204.668V194.696H206.668ZM205.668 170.884H206.487V168.884H205.668V170.884ZM205.487 169.884V194.696H207.487V169.884H205.487ZM206.487 193.696H205.668V195.696H206.487V193.696ZM206.077 164.361C206.127 164.361 206.186 164.374 206.237 164.402C206.285 164.427 206.298 164.449 206.285 164.433L204.718 165.675C205.032 166.071 205.494 166.361 206.077 166.361V164.361ZM206.285 164.433C206.274 164.418 206.258 164.399 206.258 164.327H204.258C204.258 164.815 204.405 165.28 204.718 165.675L206.285 164.433ZM206.258 164.327C206.258 164.255 206.274 164.236 206.285 164.221L204.718 162.979C204.405 163.374 204.258 163.839 204.258 164.327H206.258ZM206.285 164.221C206.298 164.205 206.285 164.227 206.237 164.252C206.186 164.28 206.127 164.293 206.077 164.293V162.293C205.494 162.293 205.032 162.582 204.718 162.979L206.285 164.221ZM206.077 164.293C206.028 164.293 205.969 164.28 205.918 164.252C205.87 164.227 205.857 164.205 205.87 164.221L207.437 162.979C207.123 162.582 206.661 162.293 206.077 162.293V164.293ZM205.87 164.221C205.881 164.236 205.897 164.255 205.897 164.327H207.897C207.897 163.839 207.75 163.374 207.437 162.979L205.87 164.221ZM205.897 164.327C205.897 164.399 205.881 164.418 205.87 164.433L207.437 165.675C207.75 165.28 207.897 164.815 207.897 164.327H205.897ZM205.87 164.433C205.857 164.449 205.87 164.427 205.918 164.402C205.969 164.374 206.028 164.361 206.077 164.361V166.361C206.661 166.361 207.123 166.071 207.437 165.675L205.87 164.433ZM219.312 169.884V170.918H221.312V169.884H219.312ZM220.312 169.918H212.531V171.918H220.312V169.918ZM213.531 170.918V169.884H211.531V170.918H213.531ZM212.531 170.884H220.312V168.884H212.531V170.884ZM216.244 194.696V165.813H214.244V194.696H216.244ZM216.244 165.813C216.244 164.766 216.428 163.914 216.759 163.226L214.957 162.359C214.469 163.372 214.244 164.534 214.244 165.813H216.244ZM216.756 163.233C217.109 162.515 217.552 162.001 218.071 161.649L216.948 159.994C216.101 160.568 215.444 161.368 214.961 162.351L216.756 163.233ZM218.066 161.652C218.599 161.295 219.153 161.127 219.749 161.127V159.127C218.741 159.127 217.802 159.422 216.953 159.991L218.066 161.652ZM219.749 161.127C219.987 161.127 220.178 161.152 220.328 161.191L220.833 159.256C220.489 159.166 220.125 159.127 219.749 159.127V161.127ZM220.328 161.191C220.52 161.242 220.71 161.309 220.899 161.394L221.721 159.571C221.432 159.441 221.136 159.336 220.833 159.256L220.328 161.191ZM220.343 160.227L220.087 161.196L222.021 161.707L222.277 160.738L220.343 160.227ZM221.429 160.524C221.18 160.424 220.93 160.34 220.681 160.274L220.173 162.209C220.333 162.251 220.502 162.307 220.68 162.379L221.429 160.524ZM220.681 160.274C220.381 160.196 220.068 160.161 219.749 160.161V162.161C219.924 162.161 220.064 162.18 220.173 162.209L220.681 160.274ZM219.749 160.161C218.443 160.161 217.322 160.728 216.419 161.738L217.909 163.072C218.49 162.423 219.092 162.161 219.749 162.161V160.161ZM216.415 161.742C215.475 162.804 215.063 164.202 215.063 165.813H217.063C217.063 164.538 217.385 163.664 217.913 163.067L216.415 161.742ZM215.063 165.812L215.037 194.695L217.037 194.696L217.063 165.814L215.063 165.812ZM216.037 193.696H215.244V195.696H216.037V193.696ZM226.381 203C226.167 203 225.915 202.962 225.62 202.869L225.018 204.776C225.474 204.92 225.93 205 226.381 205V203ZM225.595 202.861C225.294 202.775 224.979 202.647 224.65 202.471L223.71 204.236C224.149 204.47 224.593 204.654 225.043 204.784L225.595 202.861ZM225.127 203.675L225.434 202.771L223.54 202.128L223.233 203.032L225.127 203.675ZM224.015 203.331C224.988 203.852 225.991 204.101 226.975 203.917L226.607 201.951C226.209 202.025 225.676 201.951 224.959 201.568L224.015 203.331ZM226.958 203.92C227.959 203.75 228.781 203.173 229.427 202.331L227.84 201.114C227.429 201.65 227.022 201.881 226.624 201.948L226.958 203.92ZM229.422 202.337C230.068 201.51 230.557 200.412 230.927 199.103L229.002 198.559C228.673 199.727 228.275 200.556 227.845 201.107L229.422 202.337ZM230.926 199.105L231.976 195.422L230.052 194.874L229.003 198.557L230.926 199.105ZM231.976 194.875L224.809 169.611L222.885 170.157L230.052 195.421L231.976 194.875ZM223.847 170.884H224.718V168.884H223.847V170.884ZM223.755 170.156L230.41 193.676L232.335 193.131L225.68 169.611L223.755 170.156ZM231.372 194.403H231.475V192.403H231.372V194.403ZM232.437 193.676L239.092 170.156L237.167 169.611L230.513 193.131L232.437 193.676ZM238.13 170.884H239V168.884H238.13V170.884ZM238.037 169.612L229.77 198.947L231.695 199.49L239.963 170.155L238.037 169.612ZM229.77 198.948C229.498 199.918 229.167 200.7 228.792 201.313L230.498 202.358C230.992 201.549 231.387 200.587 231.695 199.489L229.77 198.948ZM228.792 201.313C228.414 201.93 228.015 202.349 227.609 202.616L228.711 204.285C229.415 203.821 230.005 203.162 230.498 202.358L228.792 201.313ZM227.603 202.62C227.217 202.879 226.817 203 226.381 203V205C227.225 205 228.011 204.755 228.717 204.281L227.603 202.62Z" fill="black" mask="url(#path-2-outside-1_2_2)"/>
<path d="M361.015 154.251C358.877 146.319 363.2 137.119 370.672 133.703L464.074 91L457.305 101.761C456.828 102.519 456.203 103.155 455.486 103.613L370.673 157.818C366.762 160.317 362.195 158.631 361.015 154.251Z" fill="#D592FF"/>
<path d="M364.225 170.109C362.611 168.806 362.982 165.878 364.919 164.628L445.082 112.895C447.684 111.216 450.725 112.318 451.541 115.234L452.485 118.607C453.2 121.162 451.92 124.16 449.568 125.439L367.102 170.28C366.118 170.816 365.019 170.75 364.225 170.109Z" fill="#D592FF"/>
<path d="M462.596 142.593C464.694 150.498 460.348 159.628 452.89 162.985L368.588 200.927L374.566 190.688C375.046 189.866 375.699 189.173 376.459 188.68L452.9 139.047C456.818 136.502 461.427 138.188 462.596 142.593Z" fill="#D592FF"/>
<path d="M476.627 116.783C478.536 117.911 478.283 121.156 476.184 122.474L372.509 187.569C369.947 189.177 366.991 188.093 366.162 185.239L365.161 181.798C364.415 179.228 365.689 176.183 368.054 174.888L474.068 116.816C474.921 116.348 475.87 116.336 476.627 116.783Z" fill="#D592FF"/>
<path d="M373.331 218.389C371.184 210.421 375.527 201.179 383.032 197.748L486.304 150.533L478.64 161.798C478.168 162.492 477.57 163.072 476.893 163.494L382.954 222.021C379.036 224.462 374.508 222.753 373.331 218.389Z" fill="#D592FF"/>
<path d="M364.489 240.118C362.695 238.901 363.018 235.777 365.071 234.504L460.083 175.555C462.673 173.948 465.654 175.066 466.46 177.945L467.424 181.386C468.143 183.955 466.843 186.97 464.471 188.237L367.175 240.182C366.268 240.666 365.262 240.642 364.489 240.118Z" fill="#D592FF"/>
<path d="M485.691 201.714C487.8 209.665 483.43 218.848 475.928 222.224L380.887 265L387.832 254.207C388.311 253.462 388.936 252.837 389.649 252.388L476.038 198.082C479.967 195.613 484.527 197.329 485.691 201.714Z" fill="#D592FF"/>
<path d="M463.095 193.971C464.694 195.26 464.35 198.166 462.448 199.44L384.892 251.384C382.313 253.112 379.258 252.055 378.411 249.142L377.443 245.811C376.703 243.266 377.947 240.248 380.278 238.933L460.203 193.826C461.188 193.27 462.295 193.326 463.095 193.971Z" fill="#D592FF"/>
<mask id="path-5-outside-2_2_2" maskUnits="userSpaceOnUse" x="316" y="151" width="214" height="54" fill="black">
<rect fill="white" x="316" y="151" width="214" height="54"/>
<path d="M345.93 187.114C345.93 180.415 350.233 174.984 355.54 174.984H448.04C453.347 174.984 457.65 180.415 457.65 187.114C457.65 193.814 453.347 199.244 448.04 199.244H355.54C350.233 199.244 345.93 193.814 345.93 187.114Z"/>
<path d="M325.242 196.729C323.655 196.729 322.239 196.169 320.993 195.049C319.756 193.918 318.779 192.383 318.062 190.445C317.354 188.507 317 186.315 317 183.871C317 181.448 317.354 179.267 318.062 177.328C318.77 175.379 319.743 173.839 320.98 172.708C322.226 171.578 323.646 171.012 325.242 171.012C326.419 171.012 327.499 171.335 328.48 171.982C329.469 172.617 330.297 173.511 330.962 174.663C331.628 175.805 332.059 177.129 332.255 178.637H331.385C331.12 176.688 330.416 175.105 329.273 173.888C328.138 172.66 326.795 172.046 325.242 172.046C323.834 172.046 322.567 172.563 321.441 173.597C320.323 174.62 319.44 176.025 318.792 177.813C318.143 179.59 317.819 181.609 317.819 183.871C317.819 186.067 318.13 188.06 318.753 189.847C319.385 191.635 320.259 193.057 321.377 194.112C322.495 195.167 323.783 195.695 325.242 195.695C326.291 195.695 327.255 195.42 328.134 194.871C329.013 194.311 329.742 193.525 330.323 192.513C330.911 191.5 331.282 190.321 331.436 188.975H332.306C332.119 190.537 331.692 191.899 331.026 193.062C330.361 194.225 329.529 195.13 328.531 195.776C327.533 196.411 326.436 196.729 325.242 196.729Z"/>
<path d="M338.916 163.129V196.212H338.097V163.129H338.916Z"/>
<path d="M467.274 169.884V170.918H459.493V169.884H467.274ZM462.36 163.939H463.179V189.462C463.179 190.431 463.349 191.266 463.691 191.966C464.032 192.655 464.484 193.188 465.047 193.565C465.61 193.931 466.216 194.114 466.865 194.114C467.112 194.114 467.338 194.087 467.543 194.033C467.756 193.979 467.974 193.899 468.196 193.791L468.452 194.76C468.196 194.879 467.944 194.97 467.696 195.035C467.449 195.11 467.172 195.148 466.865 195.148C466.063 195.148 465.316 194.916 464.625 194.453C463.942 193.99 463.392 193.333 462.974 192.483C462.565 191.632 462.36 190.625 462.36 189.462V163.939Z"/>
<path d="M474.902 178.025V194.696H474.083V161.613H474.902V173.825H475.004C475.465 172.533 476.22 171.499 477.269 170.724C478.327 169.948 479.534 169.561 480.891 169.561C482.205 169.561 483.365 169.921 484.372 170.643C485.379 171.364 486.168 172.361 486.74 173.631C487.311 174.902 487.597 176.367 487.597 178.025V194.696H486.778V178.025C486.778 175.828 486.232 174.041 485.14 172.662C484.048 171.284 482.632 170.594 480.891 170.594C479.731 170.594 478.698 170.912 477.794 171.548C476.898 172.183 476.19 173.061 475.67 174.181C475.158 175.301 474.902 176.582 474.902 178.025Z"/>
<path d="M494.668 194.696V169.884H495.487V194.696H494.668ZM495.077 165.361C494.856 165.361 494.664 165.258 494.502 165.054C494.339 164.849 494.258 164.607 494.258 164.327C494.258 164.047 494.339 163.805 494.502 163.6C494.664 163.395 494.856 163.293 495.077 163.293C495.299 163.293 495.491 163.395 495.653 163.6C495.816 163.805 495.897 164.047 495.897 164.327C495.897 164.607 495.816 164.849 495.653 165.054C495.491 165.258 495.299 165.361 495.077 165.361Z"/>
<path d="M509.312 169.884V170.918H501.531V169.884H509.312ZM504.244 194.696V165.813C504.244 164.65 504.449 163.643 504.858 162.792C505.276 161.942 505.827 161.285 506.509 160.822C507.2 160.359 507.947 160.127 508.749 160.127C509.056 160.127 509.333 160.159 509.581 160.224C509.828 160.289 510.071 160.375 510.31 160.482L510.054 161.452C509.841 161.365 509.632 161.295 509.427 161.242C509.222 161.188 508.996 161.161 508.749 161.161C507.768 161.161 506.906 161.575 506.164 162.405C505.43 163.234 505.063 164.37 505.063 165.813L505.037 194.696H504.244Z"/>
<path d="M515.381 204C515.049 204 514.694 203.941 514.319 203.822C513.944 203.715 513.564 203.558 513.18 203.354L513.487 202.449C514.332 202.902 515.1 203.063 515.791 202.934C516.49 202.815 517.105 202.412 517.634 201.722C518.171 201.033 518.615 200.069 518.965 198.831L520.014 195.148L512.847 169.884H513.718L520.372 193.403H520.475L527.13 169.884H528L519.733 199.219C519.442 200.252 519.08 201.125 518.645 201.835C518.21 202.546 517.715 203.085 517.16 203.451C516.614 203.817 516.021 204 515.381 204Z"/>
</mask>
<path d="M325.242 196.729C323.655 196.729 322.239 196.169 320.993 195.049C319.756 193.918 318.779 192.383 318.062 190.445C317.354 188.507 317 186.315 317 183.871C317 181.448 317.354 179.267 318.062 177.328C318.77 175.379 319.743 173.839 320.98 172.708C322.226 171.578 323.646 171.012 325.242 171.012C326.419 171.012 327.499 171.335 328.48 171.982C329.469 172.617 330.297 173.511 330.962 174.663C331.628 175.805 332.059 177.129 332.255 178.637H331.385C331.12 176.688 330.416 175.105 329.273 173.888C328.138 172.66 326.795 172.046 325.242 172.046C323.834 172.046 322.567 172.563 321.441 173.597C320.323 174.62 319.44 176.025 318.792 177.813C318.143 179.59 317.819 181.609 317.819 183.871C317.819 186.067 318.13 188.06 318.753 189.847C319.385 191.635 320.259 193.057 321.377 194.112C322.495 195.167 323.783 195.695 325.242 195.695C326.291 195.695 327.255 195.42 328.134 194.871C329.013 194.311 329.742 193.525 330.323 192.513C330.911 191.5 331.282 190.321 331.436 188.975H332.306C332.119 190.537 331.692 191.899 331.026 193.062C330.361 194.225 329.529 195.13 328.531 195.776C327.533 196.411 326.436 196.729 325.242 196.729Z" fill="black"/>
<path d="M338.916 163.129V196.212H338.097V163.129H338.916Z" fill="black"/>
<path d="M467.274 169.884V170.918H459.493V169.884H467.274ZM462.36 163.939H463.179V189.462C463.179 190.431 463.349 191.266 463.691 191.966C464.032 192.655 464.484 193.188 465.047 193.565C465.61 193.931 466.216 194.114 466.865 194.114C467.112 194.114 467.338 194.087 467.543 194.033C467.756 193.979 467.974 193.899 468.196 193.791L468.452 194.76C468.196 194.879 467.944 194.97 467.696 195.035C467.449 195.11 467.172 195.148 466.865 195.148C466.063 195.148 465.316 194.916 464.625 194.453C463.942 193.99 463.392 193.333 462.974 192.483C462.565 191.632 462.36 190.625 462.36 189.462V163.939Z" fill="black"/>
<path d="M474.902 178.025V194.696H474.083V161.613H474.902V173.825H475.004C475.465 172.533 476.22 171.499 477.269 170.724C478.327 169.948 479.534 169.561 480.891 169.561C482.205 169.561 483.365 169.921 484.372 170.643C485.379 171.364 486.168 172.361 486.74 173.631C487.311 174.902 487.597 176.367 487.597 178.025V194.696H486.778V178.025C486.778 175.828 486.232 174.041 485.14 172.662C484.048 171.284 482.632 170.594 480.891 170.594C479.731 170.594 478.698 170.912 477.794 171.548C476.898 172.183 476.19 173.061 475.67 174.181C475.158 175.301 474.902 176.582 474.902 178.025Z" fill="black"/>
<path d="M494.668 194.696V169.884H495.487V194.696H494.668ZM495.077 165.361C494.856 165.361 494.664 165.258 494.502 165.054C494.339 164.849 494.258 164.607 494.258 164.327C494.258 164.047 494.339 163.805 494.502 163.6C494.664 163.395 494.856 163.293 495.077 163.293C495.299 163.293 495.491 163.395 495.653 163.6C495.816 163.805 495.897 164.047 495.897 164.327C495.897 164.607 495.816 164.849 495.653 165.054C495.491 165.258 495.299 165.361 495.077 165.361Z" fill="black"/>
<path d="M509.312 169.884V170.918H501.531V169.884H509.312ZM504.244 194.696V165.813C504.244 164.65 504.449 163.643 504.858 162.792C505.276 161.942 505.827 161.285 506.509 160.822C507.2 160.359 507.947 160.127 508.749 160.127C509.056 160.127 509.333 160.159 509.581 160.224C509.828 160.289 510.071 160.375 510.31 160.482L510.054 161.452C509.841 161.365 509.632 161.295 509.427 161.242C509.222 161.188 508.996 161.161 508.749 161.161C507.768 161.161 506.906 161.575 506.164 162.405C505.43 163.234 505.063 164.37 505.063 165.813L505.037 194.696H504.244Z" fill="black"/>
<path d="M515.381 204C515.049 204 514.694 203.941 514.319 203.822C513.944 203.715 513.564 203.558 513.18 203.354L513.487 202.449C514.332 202.902 515.1 203.063 515.791 202.934C516.49 202.815 517.105 202.412 517.634 201.722C518.171 201.033 518.615 200.069 518.965 198.831L520.014 195.148L512.847 169.884H513.718L520.372 193.403H520.475L527.13 169.884H528L519.733 199.219C519.442 200.252 519.08 201.125 518.645 201.835C518.21 202.546 517.715 203.085 517.16 203.451C516.614 203.817 516.021 204 515.381 204Z" fill="black"/>
<path d="M410.272 164.024L409.78 163.933L410.272 164.024ZM396.233 157.702C398.008 155.115 399.87 153.61 401.602 152.935C403.322 152.263 404.934 152.4 406.276 153.135C408.974 154.613 410.757 158.642 409.78 163.933L410.764 164.115C411.786 158.575 409.97 154.018 406.756 152.258C405.142 151.374 403.219 151.23 401.238 152.003C399.267 152.772 397.26 154.438 395.409 157.136L396.233 157.702ZM409.78 163.933C408.796 169.265 406.882 172.32 405.253 174.036C404.436 174.895 403.685 175.424 403.147 175.736C402.878 175.892 402.662 175.994 402.516 176.056C402.444 176.087 402.389 176.107 402.355 176.12C402.337 176.126 402.325 176.13 402.318 176.132C402.315 176.134 402.312 176.134 402.312 176.134C402.311 176.135 402.311 176.135 402.312 176.135C402.312 176.134 402.312 176.134 402.312 176.134C402.312 176.134 402.313 176.134 402.313 176.134C402.313 176.134 402.314 176.134 402.458 176.613C402.603 177.091 402.603 177.091 402.604 177.091C402.604 177.091 402.604 177.091 402.605 177.091C402.605 177.09 402.606 177.09 402.607 177.09C402.609 177.089 402.611 177.089 402.613 177.088C402.618 177.086 402.624 177.084 402.632 177.082C402.647 177.077 402.668 177.07 402.693 177.061C402.745 177.042 402.817 177.014 402.907 176.976C403.088 176.899 403.342 176.779 403.649 176.601C404.263 176.245 405.091 175.658 405.978 174.724C407.756 172.853 409.748 169.615 410.764 164.115L409.78 163.933ZM320.993 195.049L320.318 195.787L320.324 195.792L320.993 195.049ZM318.062 190.445L317.123 190.788L317.124 190.792L318.062 190.445ZM318.062 177.328L319.002 177.672L319.002 177.67L318.062 177.328ZM320.98 172.708L320.308 171.968L320.305 171.97L320.98 172.708ZM328.48 171.982L327.93 172.817L327.939 172.823L328.48 171.982ZM330.962 174.663L330.097 175.163L330.099 175.167L330.962 174.663ZM332.255 178.637V179.637H333.394L333.247 178.508L332.255 178.637ZM331.385 178.637L330.394 178.771L330.511 179.637H331.385V178.637ZM329.273 173.888L328.539 174.566L328.544 174.572L329.273 173.888ZM321.441 173.597L322.116 174.335L322.117 174.334L321.441 173.597ZM318.792 177.813L319.731 178.156L319.732 178.154L318.792 177.813ZM318.753 189.847L317.809 190.176L317.81 190.18L318.753 189.847ZM328.134 194.871L328.664 195.719L328.672 195.714L328.134 194.871ZM330.323 192.513L329.458 192.01L329.455 192.015L330.323 192.513ZM331.436 188.975V187.975H330.544L330.442 188.862L331.436 188.975ZM332.306 188.975L333.299 189.094L333.434 187.975H332.306V188.975ZM331.026 193.062L330.158 192.565L330.158 192.565L331.026 193.062ZM328.531 195.776L329.068 196.619L329.074 196.615L328.531 195.776ZM338.916 163.129H339.916V162.129H338.916V163.129ZM338.916 196.212V197.212H339.916V196.212H338.916ZM338.097 196.212H337.097V197.212H338.097V196.212ZM338.097 163.129V162.129H337.097V163.129H338.097ZM467.274 169.884H468.274V168.884H467.274V169.884ZM467.274 170.918V171.918H468.274V170.918H467.274ZM459.493 170.918H458.493V171.918H459.493V170.918ZM459.493 169.884V168.884H458.493V169.884H459.493ZM462.36 163.939V162.939H461.36V163.939H462.36ZM463.179 163.939H464.179V162.939H463.179V163.939ZM463.691 191.966L462.792 192.404L462.795 192.409L463.691 191.966ZM465.047 193.565L464.491 194.396L464.502 194.403L465.047 193.565ZM467.543 194.033L467.298 193.064L467.289 193.066L467.543 194.033ZM468.196 193.791L469.162 193.536L468.852 192.361L467.759 192.891L468.196 193.791ZM468.452 194.76L468.872 195.668L469.632 195.316L469.418 194.505L468.452 194.76ZM467.696 195.035L467.444 194.067L467.424 194.072L467.405 194.078L467.696 195.035ZM464.625 194.453L464.064 195.281L464.068 195.284L464.625 194.453ZM462.974 192.483L462.073 192.916L462.077 192.924L462.974 192.483ZM474.902 194.696V195.696H475.902V194.696H474.902ZM474.083 194.696H473.083V195.696H474.083V194.696ZM474.083 161.613V160.613H473.083V161.613H474.083ZM474.902 161.613H475.902V160.613H474.902V161.613ZM474.902 173.825H473.902V174.825H474.902V173.825ZM475.004 173.825V174.825H475.709L475.946 174.161L475.004 173.825ZM477.269 170.724L476.678 169.917L476.675 169.919L477.269 170.724ZM484.372 170.643L484.955 169.83L484.955 169.83L484.372 170.643ZM486.74 173.631L485.828 174.042L485.828 174.042L486.74 173.631ZM487.597 194.696V195.696H488.597V194.696H487.597ZM486.778 194.696H485.778V195.696H486.778V194.696ZM485.14 172.662L484.356 173.283L484.356 173.283L485.14 172.662ZM477.794 171.548L477.219 170.729L477.215 170.732L477.794 171.548ZM475.67 174.181L474.763 173.759L474.76 173.765L475.67 174.181ZM494.668 194.696H493.668V195.696H494.668V194.696ZM494.668 169.884V168.884H493.668V169.884H494.668ZM495.487 169.884H496.487V168.884H495.487V169.884ZM495.487 194.696V195.696H496.487V194.696H495.487ZM494.502 165.054L495.285 164.433L495.285 164.433L494.502 165.054ZM494.502 163.6L495.285 164.221L495.285 164.221L494.502 163.6ZM495.653 163.6L494.87 164.221L494.87 164.221L495.653 163.6ZM495.653 165.054L494.87 164.433L494.87 164.433L495.653 165.054ZM509.312 169.884H510.312V168.884H509.312V169.884ZM509.312 170.918V171.918H510.312V170.918H509.312ZM501.531 170.918H500.531V171.918H501.531V170.918ZM501.531 169.884V168.884H500.531V169.884H501.531ZM504.244 194.696H503.244V195.696H504.244V194.696ZM504.858 162.792L503.961 162.351L503.957 162.359L504.858 162.792ZM506.509 160.822L505.953 159.991L505.948 159.994L506.509 160.822ZM509.581 160.224L509.833 159.256L509.833 159.256L509.581 160.224ZM510.31 160.482L511.277 160.738L511.493 159.919L510.721 159.571L510.31 160.482ZM510.054 161.452L509.68 162.379L510.731 162.804L511.021 161.707L510.054 161.452ZM506.164 162.405L505.419 161.738L505.415 161.742L506.164 162.405ZM505.063 165.813L506.063 165.814V165.813H505.063ZM505.037 194.696V195.696H506.037L506.037 194.696L505.037 194.696ZM514.319 203.822L514.62 202.869L514.607 202.865L514.595 202.861L514.319 203.822ZM513.18 203.354L512.233 203.032L511.96 203.837L512.71 204.236L513.18 203.354ZM513.487 202.449L513.959 201.568L512.92 201.011L512.54 202.128L513.487 202.449ZM515.791 202.934L515.624 201.948L515.615 201.949L515.607 201.951L515.791 202.934ZM517.634 201.722L516.845 201.107L516.84 201.114L517.634 201.722ZM518.965 198.831L518.003 198.557L518.002 198.559L518.965 198.831ZM520.014 195.148L520.976 195.422L521.054 195.148L520.976 194.875L520.014 195.148ZM512.847 169.884V168.884H511.524L511.885 170.157L512.847 169.884ZM513.718 169.884L514.68 169.611L514.474 168.884H513.718V169.884ZM520.372 193.403L519.41 193.676L519.616 194.403H520.372V193.403ZM520.475 193.403V194.403H521.231L521.437 193.676L520.475 193.403ZM527.13 169.884V168.884H526.373L526.167 169.611L527.13 169.884ZM528 169.884L528.963 170.155L529.321 168.884H528V169.884ZM519.733 199.219L518.77 198.947L518.77 198.948L519.733 199.219ZM517.16 203.451L516.609 202.616L516.603 202.62L517.16 203.451ZM355.54 175.984H448.04V173.984H355.54V175.984ZM448.04 198.244H355.54V200.244H448.04V198.244ZM355.54 198.244C350.99 198.244 346.93 193.491 346.93 187.114H344.93C344.93 194.136 349.476 200.244 355.54 200.244V198.244ZM456.65 187.114C456.65 193.491 452.591 198.244 448.04 198.244V200.244C454.104 200.244 458.65 194.136 458.65 187.114H456.65ZM448.04 175.984C452.591 175.984 456.65 180.737 456.65 187.114H458.65C458.65 180.092 454.104 173.984 448.04 173.984V175.984ZM355.54 173.984C349.476 173.984 344.93 180.092 344.93 187.114H346.93C346.93 180.737 350.99 175.984 355.54 175.984V173.984ZM325.242 195.729C323.916 195.729 322.735 195.27 321.662 194.305L320.324 195.792C321.742 197.067 323.393 197.729 325.242 197.729V195.729ZM321.668 194.311C320.572 193.31 319.674 191.921 319 190.098L317.124 190.792C317.884 192.846 318.939 194.526 320.318 195.787L321.668 194.311ZM319.002 190.102C318.34 188.292 318 186.219 318 183.871H316C316 186.411 316.368 188.722 317.123 190.788L319.002 190.102ZM318 183.871C318 181.545 318.34 179.483 319.002 177.672L317.123 176.985C316.368 179.051 316 181.35 316 183.871H318ZM319.002 177.67C319.668 175.837 320.562 174.446 321.655 173.447L320.305 171.97C318.924 173.233 317.873 174.921 317.122 176.987L319.002 177.67ZM321.652 173.449C322.725 172.475 323.909 172.012 325.242 172.012V170.012C323.383 170.012 321.727 170.68 320.308 171.968L321.652 173.449ZM325.242 172.012C326.224 172.012 327.112 172.278 327.93 172.817L329.03 171.146C327.885 170.392 326.614 170.012 325.242 170.012V172.012ZM327.939 172.823C328.778 173.361 329.5 174.131 330.097 175.163L331.828 174.163C331.094 172.891 330.161 171.872 329.02 171.14L327.939 172.823ZM330.099 175.167C330.688 176.177 331.082 177.371 331.263 178.766L333.247 178.508C333.036 176.888 332.568 175.432 331.826 174.159L330.099 175.167ZM332.255 177.637H331.385V179.637H332.255V177.637ZM332.376 178.502C332.088 176.385 331.312 174.597 330.002 173.203L328.544 174.572C329.521 175.612 330.152 176.991 330.394 178.771L332.376 178.502ZM330.007 173.209C328.7 171.794 327.097 171.046 325.242 171.046V173.046C326.493 173.046 327.577 173.526 328.539 174.566L330.007 173.209ZM325.242 171.046C323.561 171.046 322.058 171.673 320.765 172.86L322.117 174.334C323.076 173.453 324.107 173.046 325.242 173.046V171.046ZM320.766 172.859C319.502 174.016 318.541 175.571 317.852 177.472L319.732 178.154C320.339 176.48 321.144 175.224 322.116 174.335L320.766 172.859ZM317.852 177.47C317.157 179.376 316.819 181.514 316.819 183.871H318.819C318.819 181.704 319.13 179.804 319.731 178.156L317.852 177.47ZM316.819 183.871C316.819 186.162 317.144 188.267 317.809 190.176L319.698 189.518C319.117 187.852 318.819 185.973 318.819 183.871H316.819ZM317.81 190.18C318.483 192.084 319.433 193.652 320.69 194.839L322.063 193.385C321.085 192.461 320.287 191.187 319.696 189.514L317.81 190.18ZM320.69 194.839C321.983 196.059 323.513 196.695 325.242 196.695V194.695C324.053 194.695 323.006 194.275 322.063 193.385L320.69 194.839ZM325.242 196.695C326.476 196.695 327.624 196.369 328.664 195.719L327.604 194.023C326.886 194.472 326.106 194.695 325.242 194.695V196.695ZM328.672 195.714C329.702 195.058 330.539 194.146 331.19 193.01L329.455 192.015C328.945 192.904 328.323 193.565 327.597 194.028L328.672 195.714ZM331.187 193.015C331.855 191.866 332.263 190.55 332.43 189.088L330.442 188.862C330.302 190.092 329.967 191.134 329.458 192.01L331.187 193.015ZM331.436 189.975H332.306V187.975H331.436V189.975ZM331.313 188.856C331.139 190.307 330.747 191.537 330.158 192.565L331.894 193.559C332.637 192.261 333.098 190.766 333.299 189.094L331.313 188.856ZM330.158 192.565C329.562 193.608 328.836 194.387 327.987 194.936L329.074 196.615C330.223 195.872 331.16 194.842 331.894 193.559L330.158 192.565ZM327.994 194.932C327.158 195.464 326.248 195.729 325.242 195.729V197.729C326.625 197.729 327.908 197.358 329.068 196.619L327.994 194.932ZM337.916 163.129V196.212H339.916V163.129H337.916ZM338.916 195.212H338.097V197.212H338.916V195.212ZM339.097 196.212V163.129H337.097V196.212H339.097ZM338.097 164.129H338.916V162.129H338.097V164.129ZM466.274 169.884V170.918H468.274V169.884H466.274ZM467.274 169.918H459.493V171.918H467.274V169.918ZM460.493 170.918V169.884H458.493V170.918H460.493ZM459.493 170.884H467.274V168.884H459.493V170.884ZM462.36 164.939H463.179V162.939H462.36V164.939ZM462.179 163.939V189.462H464.179V163.939H462.179ZM462.179 189.462C462.179 190.547 462.37 191.538 462.792 192.404L464.59 191.527C464.329 190.993 464.179 190.315 464.179 189.462H462.179ZM462.795 192.409C463.203 193.234 463.764 193.909 464.491 194.396L465.604 192.734C465.204 192.467 464.861 192.076 464.587 191.522L462.795 192.409ZM464.502 194.403C465.221 194.871 466.015 195.114 466.865 195.114V193.114C466.417 193.114 465.999 192.991 465.592 192.726L464.502 194.403ZM466.865 195.114C467.184 195.114 467.497 195.079 467.797 195L467.289 193.066C467.179 193.095 467.04 193.114 466.865 193.114V195.114ZM467.788 195.003C468.075 194.93 468.356 194.825 468.632 194.691L467.759 192.891C467.591 192.973 467.438 193.028 467.298 193.064L467.788 195.003ZM467.229 194.046L467.485 195.016L469.418 194.505L469.162 193.536L467.229 194.046ZM468.032 193.853C467.824 193.949 467.628 194.019 467.444 194.067L467.949 196.002C468.26 195.921 468.567 195.809 468.872 195.668L468.032 193.853ZM467.405 194.078C467.268 194.12 467.091 194.148 466.865 194.148V196.148C467.253 196.148 467.63 196.1 467.988 195.991L467.405 194.078ZM466.865 194.148C466.269 194.148 465.715 193.98 465.182 193.623L464.068 195.284C464.918 195.853 465.857 196.148 466.865 196.148V194.148ZM465.186 193.626C464.668 193.274 464.225 192.76 463.872 192.042L462.077 192.924C462.56 193.907 463.217 194.706 464.064 195.281L465.186 193.626ZM463.875 192.049C463.544 191.361 463.36 190.509 463.36 189.462H461.36C461.36 190.741 461.585 191.903 462.073 192.916L463.875 192.049ZM463.36 189.462V163.939H461.36V189.462H463.36ZM473.902 178.025V194.696H475.902V178.025H473.902ZM474.902 193.696H474.083V195.696H474.902V193.696ZM475.083 194.696V161.613H473.083V194.696H475.083ZM474.083 162.613H474.902V160.613H474.083V162.613ZM473.902 161.613V173.825H475.902V161.613H473.902ZM474.902 174.825H475.004V172.825H474.902V174.825ZM475.946 174.161C476.344 173.046 476.982 172.179 477.864 171.528L476.675 169.919C475.457 170.819 474.586 172.02 474.062 173.489L475.946 174.161ZM477.86 171.53C478.741 170.885 479.739 170.561 480.891 170.561V168.561C479.33 168.561 477.914 169.012 476.678 169.917L477.86 171.53ZM480.891 170.561C482.009 170.561 482.963 170.864 483.79 171.456L484.955 169.83C483.767 168.979 482.4 168.561 480.891 168.561V170.561ZM483.79 171.456C484.636 172.062 485.319 172.911 485.828 174.042L487.652 173.221C487.017 171.81 486.122 170.667 484.955 169.83L483.79 171.456ZM485.828 174.042C486.331 175.161 486.597 176.482 486.597 178.025H488.597C488.597 176.252 488.291 174.643 487.652 173.221L485.828 174.042ZM486.597 178.025V194.696H488.597V178.025H486.597ZM487.597 193.696H486.778V195.696H487.597V193.696ZM487.778 194.696V178.025H485.778V194.696H487.778ZM487.778 178.025C487.778 175.66 487.188 173.637 485.924 172.041L484.356 173.283C485.276 174.445 485.778 175.996 485.778 178.025H487.778ZM485.924 172.041C484.644 170.426 482.941 169.594 480.891 169.594V171.594C482.322 171.594 483.451 172.141 484.356 173.283L485.924 172.041ZM480.891 169.594C479.536 169.594 478.301 169.97 477.219 170.729L478.369 172.366C479.096 171.855 479.926 171.594 480.891 171.594V169.594ZM477.215 170.732C476.161 171.48 475.347 172.501 474.763 173.759L476.576 174.602C477.033 173.62 477.636 172.886 478.372 172.363L477.215 170.732ZM474.76 173.765C474.179 175.036 473.902 176.463 473.902 178.025H475.902C475.902 176.701 476.136 175.565 476.579 174.596L474.76 173.765ZM495.668 194.696V169.884H493.668V194.696H495.668ZM494.668 170.884H495.487V168.884H494.668V170.884ZM494.487 169.884V194.696H496.487V169.884H494.487ZM495.487 193.696H494.668V195.696H495.487V193.696ZM495.077 164.361C495.127 164.361 495.186 164.374 495.237 164.402C495.285 164.427 495.298 164.449 495.285 164.433L493.718 165.675C494.032 166.071 494.494 166.361 495.077 166.361V164.361ZM495.285 164.433C495.274 164.418 495.258 164.399 495.258 164.327H493.258C493.258 164.815 493.405 165.28 493.718 165.675L495.285 164.433ZM495.258 164.327C495.258 164.255 495.274 164.236 495.285 164.221L493.718 162.979C493.405 163.374 493.258 163.839 493.258 164.327H495.258ZM495.285 164.221C495.298 164.205 495.285 164.227 495.237 164.252C495.186 164.28 495.127 164.293 495.077 164.293V162.293C494.494 162.293 494.032 162.582 493.718 162.979L495.285 164.221ZM495.077 164.293C495.028 164.293 494.969 164.28 494.918 164.252C494.87 164.227 494.857 164.205 494.87 164.221L496.437 162.979C496.123 162.582 495.661 162.293 495.077 162.293V164.293ZM494.87 164.221C494.881 164.236 494.897 164.255 494.897 164.327H496.897C496.897 163.839 496.75 163.374 496.437 162.979L494.87 164.221ZM494.897 164.327C494.897 164.399 494.881 164.418 494.87 164.433L496.437 165.675C496.75 165.28 496.897 164.815 496.897 164.327H494.897ZM494.87 164.433C494.857 164.449 494.87 164.427 494.918 164.402C494.969 164.374 495.028 164.361 495.077 164.361V166.361C495.661 166.361 496.123 166.071 496.437 165.675L494.87 164.433ZM508.312 169.884V170.918H510.312V169.884H508.312ZM509.312 169.918H501.531V171.918H509.312V169.918ZM502.531 170.918V169.884H500.531V170.918H502.531ZM501.531 170.884H509.312V168.884H501.531V170.884ZM505.244 194.696V165.813H503.244V194.696H505.244ZM505.244 165.813C505.244 164.766 505.428 163.914 505.759 163.226L503.957 162.359C503.469 163.372 503.244 164.534 503.244 165.813H505.244ZM505.756 163.233C506.109 162.515 506.552 162.001 507.071 161.649L505.948 159.994C505.101 160.568 504.444 161.368 503.961 162.351L505.756 163.233ZM507.066 161.652C507.599 161.295 508.153 161.127 508.749 161.127V159.127C507.741 159.127 506.802 159.422 505.953 159.991L507.066 161.652ZM508.749 161.127C508.987 161.127 509.178 161.152 509.328 161.191L509.833 159.256C509.489 159.166 509.125 159.127 508.749 159.127V161.127ZM509.328 161.191C509.52 161.242 509.71 161.309 509.899 161.394L510.721 159.571C510.432 159.441 510.136 159.336 509.833 159.256L509.328 161.191ZM509.343 160.227L509.087 161.196L511.021 161.707L511.277 160.738L509.343 160.227ZM510.429 160.524C510.18 160.424 509.93 160.34 509.681 160.274L509.173 162.209C509.333 162.251 509.502 162.307 509.68 162.379L510.429 160.524ZM509.681 160.274C509.381 160.196 509.068 160.161 508.749 160.161V162.161C508.924 162.161 509.064 162.18 509.173 162.209L509.681 160.274ZM508.749 160.161C507.443 160.161 506.322 160.728 505.419 161.738L506.909 163.072C507.49 162.423 508.092 162.161 508.749 162.161V160.161ZM505.415 161.742C504.475 162.804 504.063 164.202 504.063 165.813H506.063C506.063 164.538 506.385 163.664 506.913 163.067L505.415 161.742ZM504.063 165.812L504.037 194.695L506.037 194.696L506.063 165.814L504.063 165.812ZM505.037 193.696H504.244V195.696H505.037V193.696ZM515.381 203C515.167 203 514.915 202.962 514.62 202.869L514.018 204.776C514.474 204.92 514.93 205 515.381 205V203ZM514.595 202.861C514.294 202.775 513.979 202.647 513.65 202.471L512.71 204.236C513.149 204.47 513.593 204.654 514.043 204.784L514.595 202.861ZM514.127 203.675L514.434 202.771L512.54 202.128L512.233 203.032L514.127 203.675ZM513.015 203.331C513.988 203.852 514.991 204.101 515.975 203.917L515.607 201.951C515.209 202.025 514.676 201.951 513.959 201.568L513.015 203.331ZM515.958 203.92C516.959 203.75 517.781 203.173 518.427 202.331L516.84 201.114C516.429 201.65 516.022 201.881 515.624 201.948L515.958 203.92ZM518.422 202.337C519.068 201.51 519.557 200.412 519.927 199.103L518.002 198.559C517.673 199.727 517.275 200.556 516.845 201.107L518.422 202.337ZM519.926 199.105L520.976 195.422L519.052 194.874L518.003 198.557L519.926 199.105ZM520.976 194.875L513.809 169.611L511.885 170.157L519.052 195.421L520.976 194.875ZM512.847 170.884H513.718V168.884H512.847V170.884ZM512.755 170.156L519.41 193.676L521.335 193.131L514.68 169.611L512.755 170.156ZM520.372 194.403H520.475V192.403H520.372V194.403ZM521.437 193.676L528.092 170.156L526.167 169.611L519.513 193.131L521.437 193.676ZM527.13 170.884H528V168.884H527.13V170.884ZM527.037 169.612L518.77 198.947L520.695 199.49L528.963 170.155L527.037 169.612ZM518.77 198.948C518.498 199.918 518.167 200.7 517.792 201.313L519.498 202.358C519.992 201.549 520.387 200.587 520.695 199.489L518.77 198.948ZM517.792 201.313C517.414 201.93 517.015 202.349 516.609 202.616L517.711 204.285C518.415 203.821 519.005 203.162 519.498 202.358L517.792 201.313ZM516.603 202.62C516.217 202.879 515.817 203 515.381 203V205C516.225 205 517.011 204.755 517.717 204.281L516.603 202.62Z" fill="black" mask="url(#path-5-outside-2_2_2)"/>
<path d="M323.289 404.749C325.427 412.681 321.103 421.881 313.631 425.297L220.229 468L226.999 457.239C227.475 456.481 228.1 455.845 228.817 455.387L313.631 401.182C317.542 398.683 322.108 400.369 323.289 404.749Z" fill="url(#paint0_linear_2_2)" fill-opacity="0.9"/>
<path d="M320.079 388.891C321.692 390.194 321.321 393.122 319.384 394.372L239.221 446.105C236.62 447.784 233.579 446.682 232.762 443.766L231.818 440.393C231.103 437.838 232.384 434.84 234.736 433.561L317.202 388.72C318.186 388.184 319.285 388.25 320.079 388.891Z" fill="url(#paint1_linear_2_2)" fill-opacity="0.9"/>
<path d="M221.708 416.407C219.61 408.502 223.956 399.372 231.414 396.015L315.716 358.073L309.738 368.312C309.258 369.134 308.605 369.827 307.845 370.32L231.404 419.953C227.486 422.498 222.877 420.812 221.708 416.407Z" fill="url(#paint2_linear_2_2)" fill-opacity="0.9"/>
<path d="M207.677 442.217C205.768 441.089 206.021 437.844 208.12 436.526L311.795 371.431C314.357 369.823 317.313 370.907 318.142 373.761L319.142 377.202C319.889 379.772 318.614 382.817 316.25 384.112L210.236 442.184C209.382 442.652 208.434 442.664 207.677 442.217Z" fill="url(#paint3_linear_2_2)" fill-opacity="0.9"/>
<path d="M310.972 340.611C313.12 348.579 308.777 357.821 301.271 361.252L198 408.467L205.663 397.202C206.135 396.508 206.734 395.928 207.411 395.506L301.349 336.979C305.268 334.538 309.796 336.247 310.972 340.611Z" fill="url(#paint4_linear_2_2)" fill-opacity="0.9"/>
<path d="M319.814 318.882C321.609 320.099 321.285 323.223 319.233 324.496L224.221 383.445C221.631 385.052 218.649 383.934 217.843 381.055L216.88 377.614C216.161 375.045 217.461 372.03 219.833 370.763L317.128 318.818C318.035 318.334 319.042 318.358 319.814 318.882Z" fill="url(#paint5_linear_2_2)" fill-opacity="0.9"/>
<path d="M198.613 357.286C196.503 349.335 200.874 340.152 208.376 336.776L303.416 294L296.472 304.793C295.992 305.538 295.368 306.163 294.654 306.612L208.265 360.918C204.337 363.387 199.777 361.671 198.613 357.286Z" fill="url(#paint6_linear_2_2)" fill-opacity="0.9"/>
<path d="M221.208 365.029C219.61 363.74 219.954 360.834 221.856 359.56L299.411 307.616C301.991 305.888 305.046 306.945 305.892 309.858L306.861 313.189C307.6 315.734 306.356 318.752 304.026 320.067L224.1 365.174C223.116 365.73 222.008 365.674 221.208 365.029Z" fill="url(#paint7_linear_2_2)" fill-opacity="0.9"/>
<mask id="path-8-outside-3_2_2" maskUnits="userSpaceOnUse" x="171" y="354" width="214" height="54" fill="black">
<rect fill="white" x="171" y="354" width="214" height="54"/>
<path d="M200.93 390.114C200.93 383.415 205.233 377.984 210.54 377.984H303.04C308.347 377.984 312.65 383.415 312.65 390.114C312.65 396.814 308.347 402.244 303.04 402.244H210.54C205.233 402.244 200.93 396.814 200.93 390.114Z"/>
<path d="M180.242 399.729C178.655 399.729 177.239 399.169 175.993 398.049C174.756 396.918 173.779 395.383 173.062 393.445C172.354 391.507 172 389.315 172 386.871C172 384.448 172.354 382.267 173.062 380.328C173.77 378.379 174.743 376.839 175.98 375.708C177.226 374.578 178.646 374.012 180.242 374.012C181.419 374.012 182.499 374.335 183.48 374.982C184.469 375.617 185.297 376.511 185.962 377.663C186.628 378.805 187.059 380.129 187.255 381.637H186.385C186.12 379.688 185.416 378.105 184.273 376.888C183.138 375.66 181.795 375.046 180.242 375.046C178.834 375.046 177.567 375.563 176.441 376.597C175.323 377.62 174.44 379.025 173.792 380.813C173.143 382.59 172.819 384.609 172.819 386.871C172.819 389.067 173.13 391.06 173.753 392.847C174.385 394.635 175.259 396.057 176.377 397.112C177.495 398.167 178.783 398.695 180.242 398.695C181.291 398.695 182.255 398.42 183.134 397.871C184.013 397.311 184.742 396.525 185.323 395.513C185.911 394.5 186.282 393.321 186.436 391.975H187.306C187.119 393.537 186.692 394.899 186.026 396.062C185.361 397.225 184.529 398.13 183.531 398.776C182.533 399.411 181.436 399.729 180.242 399.729Z"/>
<path d="M193.916 366.129V399.212H193.097V366.129H193.916Z"/>
<path d="M322.274 372.884V373.918H314.493V372.884H322.274ZM317.36 366.939H318.179V392.462C318.179 393.431 318.349 394.266 318.691 394.966C319.032 395.655 319.484 396.188 320.047 396.565C320.61 396.931 321.216 397.114 321.865 397.114C322.112 397.114 322.338 397.087 322.543 397.033C322.756 396.979 322.974 396.899 323.196 396.791L323.452 397.76C323.196 397.879 322.944 397.97 322.696 398.035C322.449 398.11 322.172 398.148 321.865 398.148C321.063 398.148 320.316 397.916 319.625 397.453C318.942 396.99 318.392 396.333 317.974 395.483C317.565 394.632 317.36 393.625 317.36 392.462V366.939Z"/>
<path d="M329.902 381.025V397.696H329.083V364.613H329.902V376.825H330.004C330.465 375.533 331.22 374.499 332.269 373.724C333.327 372.948 334.534 372.561 335.891 372.561C337.205 372.561 338.365 372.921 339.372 373.643C340.379 374.364 341.168 375.361 341.74 376.631C342.311 377.902 342.597 379.367 342.597 381.025V397.696H341.778V381.025C341.778 378.828 341.232 377.041 340.14 375.662C339.048 374.284 337.632 373.594 335.891 373.594C334.731 373.594 333.698 373.912 332.794 374.548C331.898 375.183 331.19 376.061 330.67 377.181C330.158 378.301 329.902 379.582 329.902 381.025Z"/>
<path d="M349.668 397.696V372.884H350.487V397.696H349.668ZM350.077 368.361C349.856 368.361 349.664 368.258 349.502 368.054C349.339 367.849 349.258 367.607 349.258 367.327C349.258 367.047 349.339 366.805 349.502 366.6C349.664 366.395 349.856 366.293 350.077 366.293C350.299 366.293 350.491 366.395 350.653 366.6C350.816 366.805 350.897 367.047 350.897 367.327C350.897 367.607 350.816 367.849 350.653 368.054C350.491 368.258 350.299 368.361 350.077 368.361Z"/>
<path d="M364.312 372.884V373.918H356.531V372.884H364.312ZM359.244 397.696V368.813C359.244 367.65 359.449 366.643 359.858 365.792C360.276 364.942 360.827 364.285 361.509 363.822C362.2 363.359 362.947 363.127 363.749 363.127C364.056 363.127 364.333 363.159 364.581 363.224C364.828 363.289 365.071 363.375 365.31 363.482L365.054 364.452C364.841 364.365 364.632 364.295 364.427 364.242C364.222 364.188 363.996 364.161 363.749 364.161C362.768 364.161 361.906 364.575 361.164 365.405C360.43 366.234 360.063 367.37 360.063 368.813L360.037 397.696H359.244Z"/>
<path d="M370.381 407C370.049 407 369.694 406.941 369.319 406.822C368.944 406.715 368.564 406.558 368.18 406.354L368.487 405.449C369.332 405.902 370.1 406.063 370.791 405.934C371.49 405.815 372.105 405.412 372.634 404.722C373.171 404.033 373.615 403.069 373.965 401.831L375.014 398.148L367.847 372.884H368.718L375.372 396.403H375.475L382.13 372.884H383L374.733 402.219C374.442 403.252 374.08 404.125 373.645 404.835C373.21 405.546 372.715 406.085 372.16 406.451C371.614 406.817 371.021 407 370.381 407Z"/>
</mask>
<path d="M180.242 399.729C178.655 399.729 177.239 399.169 175.993 398.049C174.756 396.918 173.779 395.383 173.062 393.445C172.354 391.507 172 389.315 172 386.871C172 384.448 172.354 382.267 173.062 380.328C173.77 378.379 174.743 376.839 175.98 375.708C177.226 374.578 178.646 374.012 180.242 374.012C181.419 374.012 182.499 374.335 183.48 374.982C184.469 375.617 185.297 376.511 185.962 377.663C186.628 378.805 187.059 380.129 187.255 381.637H186.385C186.12 379.688 185.416 378.105 184.273 376.888C183.138 375.66 181.795 375.046 180.242 375.046C178.834 375.046 177.567 375.563 176.441 376.597C175.323 377.62 174.44 379.025 173.792 380.813C173.143 382.59 172.819 384.609 172.819 386.871C172.819 389.067 173.13 391.06 173.753 392.847C174.385 394.635 175.259 396.057 176.377 397.112C177.495 398.167 178.783 398.695 180.242 398.695C181.291 398.695 182.255 398.42 183.134 397.871C184.013 397.311 184.742 396.525 185.323 395.513C185.911 394.5 186.282 393.321 186.436 391.975H187.306C187.119 393.537 186.692 394.899 186.026 396.062C185.361 397.225 184.529 398.13 183.531 398.776C182.533 399.411 181.436 399.729 180.242 399.729Z" fill="black"/>
<path d="M193.916 366.129V399.212H193.097V366.129H193.916Z" fill="black"/>
<path d="M322.274 372.884V373.918H314.493V372.884H322.274ZM317.36 366.939H318.179V392.462C318.179 393.431 318.349 394.266 318.691 394.966C319.032 395.655 319.484 396.188 320.047 396.565C320.61 396.931 321.216 397.114 321.865 397.114C322.112 397.114 322.338 397.087 322.543 397.033C322.756 396.979 322.974 396.899 323.196 396.791L323.452 397.76C323.196 397.879 322.944 397.97 322.696 398.035C322.449 398.11 322.172 398.148 321.865 398.148C321.063 398.148 320.316 397.916 319.625 397.453C318.942 396.99 318.392 396.333 317.974 395.483C317.565 394.632 317.36 393.625 317.36 392.462V366.939Z" fill="black"/>
<path d="M329.902 381.025V397.696H329.083V364.613H329.902V376.825H330.004C330.465 375.533 331.22 374.499 332.269 373.724C333.327 372.948 334.534 372.561 335.891 372.561C337.205 372.561 338.365 372.921 339.372 373.643C340.379 374.364 341.168 375.361 341.74 376.631C342.311 377.902 342.597 379.367 342.597 381.025V397.696H341.778V381.025C341.778 378.828 341.232 377.041 340.14 375.662C339.048 374.284 337.632 373.594 335.891 373.594C334.731 373.594 333.698 373.912 332.794 374.548C331.898 375.183 331.19 376.061 330.67 377.181C330.158 378.301 329.902 379.582 329.902 381.025Z" fill="black"/>
<path d="M349.668 397.696V372.884H350.487V397.696H349.668ZM350.077 368.361C349.856 368.361 349.664 368.258 349.502 368.054C349.339 367.849 349.258 367.607 349.258 367.327C349.258 367.047 349.339 366.805 349.502 366.6C349.664 366.395 349.856 366.293 350.077 366.293C350.299 366.293 350.491 366.395 350.653 366.6C350.816 366.805 350.897 367.047 350.897 367.327C350.897 367.607 350.816 367.849 350.653 368.054C350.491 368.258 350.299 368.361 350.077 368.361Z" fill="black"/>
<path d="M364.312 372.884V373.918H356.531V372.884H364.312ZM359.244 397.696V368.813C359.244 367.65 359.449 366.643 359.858 365.792C360.276 364.942 360.827 364.285 361.509 363.822C362.2 363.359 362.947 363.127 363.749 363.127C364.056 363.127 364.333 363.159 364.581 363.224C364.828 363.289 365.071 363.375 365.31 363.482L365.054 364.452C364.841 364.365 364.632 364.295 364.427 364.242C364.222 364.188 363.996 364.161 363.749 364.161C362.768 364.161 361.906 364.575 361.164 365.405C360.43 366.234 360.063 367.37 360.063 368.813L360.037 397.696H359.244Z" fill="black"/>
<path d="M370.381 407C370.049 407 369.694 406.941 369.319 406.822C368.944 406.715 368.564 406.558 368.18 406.354L368.487 405.449C369.332 405.902 370.1 406.063 370.791 405.934C371.49 405.815 372.105 405.412 372.634 404.722C373.171 404.033 373.615 403.069 373.965 401.831L375.014 398.148L367.847 372.884H368.718L375.372 396.403H375.475L382.13 372.884H383L374.733 402.219C374.442 403.252 374.08 404.125 373.645 404.835C373.21 405.546 372.715 406.085 372.16 406.451C371.614 406.817 371.021 407 370.381 407Z" fill="black"/>
<path d="M265.272 367.024L264.78 366.933L265.272 367.024ZM251.233 360.702C253.008 358.115 254.87 356.61 256.602 355.935C258.322 355.263 259.934 355.4 261.276 356.135C263.974 357.613 265.757 361.642 264.78 366.933L265.764 367.115C266.786 361.575 264.97 357.018 261.756 355.258C260.142 354.374 258.219 354.23 256.238 355.003C254.267 355.772 252.26 357.438 250.409 360.136L251.233 360.702ZM264.78 366.933C263.796 372.265 261.882 375.32 260.253 377.036C259.436 377.895 258.685 378.424 258.147 378.736C257.878 378.892 257.662 378.994 257.516 379.056C257.444 379.087 257.389 379.107 257.355 379.12C257.337 379.126 257.325 379.13 257.318 379.132C257.315 379.134 257.312 379.134 257.312 379.134C257.311 379.135 257.311 379.135 257.312 379.135C257.312 379.134 257.312 379.134 257.312 379.134C257.312 379.134 257.313 379.134 257.313 379.134C257.313 379.134 257.314 379.134 257.458 379.613C257.603 380.091 257.603 380.091 257.604 380.091C257.604 380.091 257.604 380.091 257.605 380.091C257.605 380.09 257.606 380.09 257.607 380.09C257.609 380.089 257.611 380.089 257.613 380.088C257.618 380.086 257.624 380.084 257.632 380.082C257.647 380.077 257.668 380.07 257.693 380.061C257.745 380.042 257.817 380.014 257.907 379.976C258.088 379.899 258.342 379.779 258.649 379.601C259.263 379.245 260.091 378.658 260.978 377.724C262.756 375.853 264.748 372.615 265.764 367.115L264.78 366.933ZM175.993 398.049L175.318 398.787L175.324 398.792L175.993 398.049ZM173.062 393.445L172.123 393.788L172.124 393.792L173.062 393.445ZM173.062 380.328L174.002 380.672L174.002 380.67L173.062 380.328ZM175.98 375.708L175.308 374.968L175.305 374.97L175.98 375.708ZM183.48 374.982L182.93 375.817L182.939 375.823L183.48 374.982ZM185.962 377.663L185.097 378.163L185.099 378.167L185.962 377.663ZM187.255 381.637V382.637H188.394L188.247 381.508L187.255 381.637ZM186.385 381.637L185.394 381.771L185.511 382.637H186.385V381.637ZM184.273 376.888L183.539 377.566L183.544 377.572L184.273 376.888ZM176.441 376.597L177.116 377.335L177.117 377.334L176.441 376.597ZM173.792 380.813L174.731 381.156L174.732 381.154L173.792 380.813ZM173.753 392.847L172.809 393.176L172.81 393.18L173.753 392.847ZM183.134 397.871L183.664 398.719L183.672 398.714L183.134 397.871ZM185.323 395.513L184.458 395.01L184.455 395.015L185.323 395.513ZM186.436 391.975V390.975H185.544L185.442 391.862L186.436 391.975ZM187.306 391.975L188.299 392.094L188.434 390.975H187.306V391.975ZM186.026 396.062L185.158 395.565L185.158 395.565L186.026 396.062ZM183.531 398.776L184.068 399.619L184.074 399.615L183.531 398.776ZM193.916 366.129H194.916V365.129H193.916V366.129ZM193.916 399.212V400.212H194.916V399.212H193.916ZM193.097 399.212H192.097V400.212H193.097V399.212ZM193.097 366.129V365.129H192.097V366.129H193.097ZM322.274 372.884H323.274V371.884H322.274V372.884ZM322.274 373.918V374.918H323.274V373.918H322.274ZM314.493 373.918H313.493V374.918H314.493V373.918ZM314.493 372.884V371.884H313.493V372.884H314.493ZM317.36 366.939V365.939H316.36V366.939H317.36ZM318.179 366.939H319.179V365.939H318.179V366.939ZM318.691 394.966L317.792 395.404L317.795 395.409L318.691 394.966ZM320.047 396.565L319.491 397.396L319.502 397.403L320.047 396.565ZM322.543 397.033L322.298 396.064L322.289 396.066L322.543 397.033ZM323.196 396.791L324.162 396.536L323.852 395.361L322.759 395.891L323.196 396.791ZM323.452 397.76L323.872 398.668L324.632 398.316L324.418 397.505L323.452 397.76ZM322.696 398.035L322.444 397.067L322.424 397.072L322.405 397.078L322.696 398.035ZM319.625 397.453L319.064 398.281L319.068 398.284L319.625 397.453ZM317.974 395.483L317.073 395.916L317.077 395.924L317.974 395.483ZM329.902 397.696V398.696H330.902V397.696H329.902ZM329.083 397.696H328.083V398.696H329.083V397.696ZM329.083 364.613V363.613H328.083V364.613H329.083ZM329.902 364.613H330.902V363.613H329.902V364.613ZM329.902 376.825H328.902V377.825H329.902V376.825ZM330.004 376.825V377.825H330.709L330.946 377.161L330.004 376.825ZM332.269 373.724L331.678 372.917L331.675 372.919L332.269 373.724ZM339.372 373.643L339.955 372.83L339.955 372.83L339.372 373.643ZM341.74 376.631L340.828 377.042L340.828 377.042L341.74 376.631ZM342.597 397.696V398.696H343.597V397.696H342.597ZM341.778 397.696H340.778V398.696H341.778V397.696ZM340.14 375.662L339.356 376.283L339.356 376.283L340.14 375.662ZM332.794 374.548L332.219 373.729L332.215 373.732L332.794 374.548ZM330.67 377.181L329.763 376.759L329.76 376.765L330.67 377.181ZM349.668 397.696H348.668V398.696H349.668V397.696ZM349.668 372.884V371.884H348.668V372.884H349.668ZM350.487 372.884H351.487V371.884H350.487V372.884ZM350.487 397.696V398.696H351.487V397.696H350.487ZM349.502 368.054L350.285 367.433L350.285 367.433L349.502 368.054ZM349.502 366.6L350.285 367.221L350.285 367.221L349.502 366.6ZM350.653 366.6L349.87 367.221L349.87 367.221L350.653 366.6ZM350.653 368.054L349.87 367.433L349.87 367.433L350.653 368.054ZM364.312 372.884H365.312V371.884H364.312V372.884ZM364.312 373.918V374.918H365.312V373.918H364.312ZM356.531 373.918H355.531V374.918H356.531V373.918ZM356.531 372.884V371.884H355.531V372.884H356.531ZM359.244 397.696H358.244V398.696H359.244V397.696ZM359.858 365.792L358.961 365.351L358.957 365.359L359.858 365.792ZM361.509 363.822L360.953 362.991L360.948 362.994L361.509 363.822ZM364.581 363.224L364.833 362.256L364.833 362.256L364.581 363.224ZM365.31 363.482L366.277 363.738L366.493 362.919L365.721 362.571L365.31 363.482ZM365.054 364.452L364.68 365.379L365.731 365.804L366.021 364.707L365.054 364.452ZM361.164 365.405L360.419 364.738L360.415 364.742L361.164 365.405ZM360.063 368.813L361.063 368.814V368.813H360.063ZM360.037 397.696V398.696H361.037L361.037 397.696L360.037 397.696ZM369.319 406.822L369.62 405.869L369.607 405.865L369.595 405.861L369.319 406.822ZM368.18 406.354L367.233 406.032L366.96 406.837L367.71 407.236L368.18 406.354ZM368.487 405.449L368.959 404.568L367.92 404.011L367.54 405.128L368.487 405.449ZM370.791 405.934L370.624 404.948L370.615 404.949L370.607 404.951L370.791 405.934ZM372.634 404.722L371.845 404.107L371.84 404.114L372.634 404.722ZM373.965 401.831L373.003 401.557L373.002 401.559L373.965 401.831ZM375.014 398.148L375.976 398.422L376.054 398.148L375.976 397.875L375.014 398.148ZM367.847 372.884V371.884H366.524L366.885 373.157L367.847 372.884ZM368.718 372.884L369.68 372.611L369.474 371.884H368.718V372.884ZM375.372 396.403L374.41 396.676L374.616 397.403H375.372V396.403ZM375.475 396.403V397.403H376.231L376.437 396.676L375.475 396.403ZM382.13 372.884V371.884H381.373L381.167 372.611L382.13 372.884ZM383 372.884L383.963 373.155L384.321 371.884H383V372.884ZM374.733 402.219L373.77 401.947L373.77 401.948L374.733 402.219ZM372.16 406.451L371.609 405.616L371.603 405.62L372.16 406.451ZM210.54 378.984H303.04V376.984H210.54V378.984ZM303.04 401.244H210.54V403.244H303.04V401.244ZM210.54 401.244C205.99 401.244 201.93 396.491 201.93 390.114H199.93C199.93 397.136 204.476 403.244 210.54 403.244V401.244ZM311.65 390.114C311.65 396.491 307.591 401.244 303.04 401.244V403.244C309.104 403.244 313.65 397.136 313.65 390.114H311.65ZM303.04 378.984C307.591 378.984 311.65 383.737 311.65 390.114H313.65C313.65 383.092 309.104 376.984 303.04 376.984V378.984ZM210.54 376.984C204.476 376.984 199.93 383.092 199.93 390.114H201.93C201.93 383.737 205.99 378.984 210.54 378.984V376.984ZM180.242 398.729C178.916 398.729 177.735 398.27 176.662 397.305L175.324 398.792C176.742 400.067 178.393 400.729 180.242 400.729V398.729ZM176.668 397.311C175.572 396.31 174.674 394.921 174 393.098L172.124 393.792C172.884 395.846 173.939 397.526 175.318 398.787L176.668 397.311ZM174.002 393.102C173.34 391.292 173 389.219 173 386.871H171C171 389.411 171.368 391.722 172.123 393.788L174.002 393.102ZM173 386.871C173 384.545 173.34 382.483 174.002 380.672L172.123 379.985C171.368 382.051 171 384.35 171 386.871H173ZM174.002 380.67C174.668 378.837 175.562 377.446 176.655 376.447L175.305 374.97C173.924 376.233 172.873 377.921 172.122 379.987L174.002 380.67ZM176.652 376.449C177.725 375.475 178.909 375.012 180.242 375.012V373.012C178.383 373.012 176.727 373.68 175.308 374.968L176.652 376.449ZM180.242 375.012C181.224 375.012 182.112 375.278 182.93 375.817L184.03 374.146C182.885 373.392 181.614 373.012 180.242 373.012V375.012ZM182.939 375.823C183.778 376.361 184.5 377.131 185.097 378.163L186.828 377.163C186.094 375.891 185.161 374.872 184.02 374.14L182.939 375.823ZM185.099 378.167C185.688 379.177 186.082 380.371 186.263 381.766L188.247 381.508C188.036 379.888 187.568 378.432 186.826 377.159L185.099 378.167ZM187.255 380.637H186.385V382.637H187.255V380.637ZM187.376 381.502C187.088 379.385 186.312 377.597 185.002 376.203L183.544 377.572C184.521 378.612 185.152 379.991 185.394 381.771L187.376 381.502ZM185.007 376.209C183.7 374.794 182.097 374.046 180.242 374.046V376.046C181.493 376.046 182.577 376.526 183.539 377.566L185.007 376.209ZM180.242 374.046C178.561 374.046 177.058 374.673 175.765 375.86L177.117 377.334C178.076 376.453 179.107 376.046 180.242 376.046V374.046ZM175.766 375.859C174.502 377.016 173.541 378.571 172.852 380.472L174.732 381.154C175.339 379.48 176.144 378.224 177.116 377.335L175.766 375.859ZM172.852 380.47C172.157 382.376 171.819 384.514 171.819 386.871H173.819C173.819 384.704 174.13 382.804 174.731 381.156L172.852 380.47ZM171.819 386.871C171.819 389.162 172.144 391.267 172.809 393.176L174.698 392.518C174.117 390.852 173.819 388.973 173.819 386.871H171.819ZM172.81 393.18C173.483 395.084 174.433 396.652 175.69 397.839L177.063 396.385C176.085 395.461 175.287 394.187 174.696 392.514L172.81 393.18ZM175.69 397.839C176.983 399.059 178.513 399.695 180.242 399.695V397.695C179.053 397.695 178.006 397.275 177.063 396.385L175.69 397.839ZM180.242 399.695C181.476 399.695 182.624 399.369 183.664 398.719L182.604 397.023C181.886 397.472 181.106 397.695 180.242 397.695V399.695ZM183.672 398.714C184.702 398.058 185.539 397.146 186.19 396.01L184.455 395.015C183.945 395.904 183.323 396.565 182.597 397.028L183.672 398.714ZM186.187 396.015C186.855 394.866 187.263 393.55 187.43 392.088L185.442 391.862C185.302 393.092 184.967 394.134 184.458 395.01L186.187 396.015ZM186.436 392.975H187.306V390.975H186.436V392.975ZM186.313 391.856C186.139 393.307 185.747 394.537 185.158 395.565L186.894 396.559C187.637 395.261 188.098 393.766 188.299 392.094L186.313 391.856ZM185.158 395.565C184.562 396.608 183.836 397.387 182.987 397.936L184.074 399.615C185.223 398.872 186.16 397.842 186.894 396.559L185.158 395.565ZM182.994 397.932C182.158 398.464 181.248 398.729 180.242 398.729V400.729C181.625 400.729 182.908 400.358 184.068 399.619L182.994 397.932ZM192.916 366.129V399.212H194.916V366.129H192.916ZM193.916 398.212H193.097V400.212H193.916V398.212ZM194.097 399.212V366.129H192.097V399.212H194.097ZM193.097 367.129H193.916V365.129H193.097V367.129ZM321.274 372.884V373.918H323.274V372.884H321.274ZM322.274 372.918H314.493V374.918H322.274V372.918ZM315.493 373.918V372.884H313.493V373.918H315.493ZM314.493 373.884H322.274V371.884H314.493V373.884ZM317.36 367.939H318.179V365.939H317.36V367.939ZM317.179 366.939V392.462H319.179V366.939H317.179ZM317.179 392.462C317.179 393.547 317.37 394.538 317.792 395.404L319.59 394.527C319.329 393.993 319.179 393.315 319.179 392.462H317.179ZM317.795 395.409C318.203 396.234 318.764 396.909 319.491 397.396L320.604 395.734C320.204 395.467 319.861 395.076 319.587 394.522L317.795 395.409ZM319.502 397.403C320.221 397.871 321.015 398.114 321.865 398.114V396.114C321.417 396.114 320.999 395.991 320.592 395.726L319.502 397.403ZM321.865 398.114C322.184 398.114 322.497 398.079 322.797 398L322.289 396.066C322.179 396.095 322.04 396.114 321.865 396.114V398.114ZM322.788 398.003C323.075 397.93 323.356 397.825 323.632 397.691L322.759 395.891C322.591 395.973 322.438 396.028 322.298 396.064L322.788 398.003ZM322.229 397.046L322.485 398.016L324.418 397.505L324.162 396.536L322.229 397.046ZM323.032 396.853C322.824 396.949 322.628 397.019 322.444 397.067L322.949 399.002C323.26 398.921 323.567 398.809 323.872 398.668L323.032 396.853ZM322.405 397.078C322.268 397.12 322.091 397.148 321.865 397.148V399.148C322.253 399.148 322.63 399.1 322.988 398.991L322.405 397.078ZM321.865 397.148C321.269 397.148 320.715 396.98 320.182 396.623L319.068 398.284C319.918 398.853 320.857 399.148 321.865 399.148V397.148ZM320.186 396.626C319.668 396.274 319.225 395.76 318.872 395.042L317.077 395.924C317.56 396.907 318.217 397.706 319.064 398.281L320.186 396.626ZM318.875 395.049C318.544 394.361 318.36 393.509 318.36 392.462H316.36C316.36 393.741 316.585 394.903 317.073 395.916L318.875 395.049ZM318.36 392.462V366.939H316.36V392.462H318.36ZM328.902 381.025V397.696H330.902V381.025H328.902ZM329.902 396.696H329.083V398.696H329.902V396.696ZM330.083 397.696V364.613H328.083V397.696H330.083ZM329.083 365.613H329.902V363.613H329.083V365.613ZM328.902 364.613V376.825H330.902V364.613H328.902ZM329.902 377.825H330.004V375.825H329.902V377.825ZM330.946 377.161C331.344 376.046 331.982 375.179 332.864 374.528L331.675 372.919C330.457 373.819 329.586 375.02 329.062 376.489L330.946 377.161ZM332.86 374.53C333.741 373.885 334.739 373.561 335.891 373.561V371.561C334.33 371.561 332.914 372.012 331.678 372.917L332.86 374.53ZM335.891 373.561C337.009 373.561 337.963 373.864 338.79 374.456L339.955 372.83C338.767 371.979 337.4 371.561 335.891 371.561V373.561ZM338.79 374.456C339.636 375.062 340.319 375.911 340.828 377.042L342.652 376.221C342.017 374.81 341.122 373.667 339.955 372.83L338.79 374.456ZM340.828 377.042C341.331 378.161 341.597 379.482 341.597 381.025H343.597C343.597 379.252 343.291 377.643 342.652 376.221L340.828 377.042ZM341.597 381.025V397.696H343.597V381.025H341.597ZM342.597 396.696H341.778V398.696H342.597V396.696ZM342.778 397.696V381.025H340.778V397.696H342.778ZM342.778 381.025C342.778 378.66 342.188 376.637 340.924 375.041L339.356 376.283C340.276 377.445 340.778 378.996 340.778 381.025H342.778ZM340.924 375.041C339.644 373.426 337.941 372.594 335.891 372.594V374.594C337.322 374.594 338.451 375.141 339.356 376.283L340.924 375.041ZM335.891 372.594C334.536 372.594 333.301 372.97 332.219 373.729L333.369 375.366C334.096 374.855 334.926 374.594 335.891 374.594V372.594ZM332.215 373.732C331.161 374.48 330.347 375.501 329.763 376.759L331.576 377.602C332.033 376.62 332.636 375.886 333.372 375.363L332.215 373.732ZM329.76 376.765C329.179 378.036 328.902 379.463 328.902 381.025H330.902C330.902 379.701 331.136 378.565 331.579 377.596L329.76 376.765ZM350.668 397.696V372.884H348.668V397.696H350.668ZM349.668 373.884H350.487V371.884H349.668V373.884ZM349.487 372.884V397.696H351.487V372.884H349.487ZM350.487 396.696H349.668V398.696H350.487V396.696ZM350.077 367.361C350.127 367.361 350.186 367.374 350.237 367.402C350.285 367.427 350.298 367.449 350.285 367.433L348.718 368.675C349.032 369.071 349.494 369.361 350.077 369.361V367.361ZM350.285 367.433C350.274 367.418 350.258 367.399 350.258 367.327H348.258C348.258 367.815 348.405 368.28 348.718 368.675L350.285 367.433ZM350.258 367.327C350.258 367.255 350.274 367.236 350.285 367.221L348.718 365.979C348.405 366.374 348.258 366.839 348.258 367.327H350.258ZM350.285 367.221C350.298 367.205 350.285 367.227 350.237 367.252C350.186 367.28 350.127 367.293 350.077 367.293V365.293C349.494 365.293 349.032 365.582 348.718 365.979L350.285 367.221ZM350.077 367.293C350.028 367.293 349.969 367.28 349.918 367.252C349.87 367.227 349.857 367.205 349.87 367.221L351.437 365.979C351.123 365.582 350.661 365.293 350.077 365.293V367.293ZM349.87 367.221C349.881 367.236 349.897 367.255 349.897 367.327H351.897C351.897 366.839 351.75 366.374 351.437 365.979L349.87 367.221ZM349.897 367.327C349.897 367.399 349.881 367.418 349.87 367.433L351.437 368.675C351.75 368.28 351.897 367.815 351.897 367.327H349.897ZM349.87 367.433C349.857 367.449 349.87 367.427 349.918 367.402C349.969 367.374 350.028 367.361 350.077 367.361V369.361C350.661 369.361 351.123 369.071 351.437 368.675L349.87 367.433ZM363.312 372.884V373.918H365.312V372.884H363.312ZM364.312 372.918H356.531V374.918H364.312V372.918ZM357.531 373.918V372.884H355.531V373.918H357.531ZM356.531 373.884H364.312V371.884H356.531V373.884ZM360.244 397.696V368.813H358.244V397.696H360.244ZM360.244 368.813C360.244 367.766 360.428 366.914 360.759 366.226L358.957 365.359C358.469 366.372 358.244 367.534 358.244 368.813H360.244ZM360.756 366.233C361.109 365.515 361.552 365.001 362.071 364.649L360.948 362.994C360.101 363.568 359.444 364.368 358.961 365.351L360.756 366.233ZM362.066 364.652C362.599 364.295 363.153 364.127 363.749 364.127V362.127C362.741 362.127 361.802 362.422 360.953 362.991L362.066 364.652ZM363.749 364.127C363.987 364.127 364.178 364.152 364.328 364.191L364.833 362.256C364.489 362.166 364.125 362.127 363.749 362.127V364.127ZM364.328 364.191C364.52 364.242 364.71 364.309 364.899 364.394L365.721 362.571C365.432 362.441 365.136 362.336 364.833 362.256L364.328 364.191ZM364.343 363.227L364.087 364.196L366.021 364.707L366.277 363.738L364.343 363.227ZM365.429 363.524C365.18 363.424 364.93 363.34 364.681 363.274L364.173 365.209C364.333 365.251 364.502 365.307 364.68 365.379L365.429 363.524ZM364.681 363.274C364.381 363.196 364.068 363.161 363.749 363.161V365.161C363.924 365.161 364.064 365.18 364.173 365.209L364.681 363.274ZM363.749 363.161C362.443 363.161 361.322 363.728 360.419 364.738L361.909 366.072C362.49 365.423 363.092 365.161 363.749 365.161V363.161ZM360.415 364.742C359.475 365.804 359.063 367.202 359.063 368.813H361.063C361.063 367.538 361.385 366.664 361.913 366.067L360.415 364.742ZM359.063 368.812L359.037 397.695L361.037 397.696L361.063 368.814L359.063 368.812ZM360.037 396.696H359.244V398.696H360.037V396.696ZM370.381 406C370.167 406 369.915 405.962 369.62 405.869L369.018 407.776C369.474 407.92 369.93 408 370.381 408V406ZM369.595 405.861C369.294 405.775 368.979 405.647 368.65 405.471L367.71 407.236C368.149 407.47 368.593 407.654 369.043 407.784L369.595 405.861ZM369.127 406.675L369.434 405.771L367.54 405.128L367.233 406.032L369.127 406.675ZM368.015 406.331C368.988 406.852 369.991 407.101 370.975 406.917L370.607 404.951C370.209 405.025 369.676 404.951 368.959 404.568L368.015 406.331ZM370.958 406.92C371.959 406.75 372.781 406.173 373.427 405.331L371.84 404.114C371.429 404.65 371.022 404.881 370.624 404.948L370.958 406.92ZM373.422 405.337C374.068 404.51 374.557 403.412 374.927 402.103L373.002 401.559C372.673 402.727 372.275 403.556 371.845 404.107L373.422 405.337ZM374.926 402.105L375.976 398.422L374.052 397.874L373.003 401.557L374.926 402.105ZM375.976 397.875L368.809 372.611L366.885 373.157L374.052 398.421L375.976 397.875ZM367.847 373.884H368.718V371.884H367.847V373.884ZM367.755 373.156L374.41 396.676L376.335 396.131L369.68 372.611L367.755 373.156ZM375.372 397.403H375.475V395.403H375.372V397.403ZM376.437 396.676L383.092 373.156L381.167 372.611L374.513 396.131L376.437 396.676ZM382.13 373.884H383V371.884H382.13V373.884ZM382.037 372.612L373.77 401.947L375.695 402.49L383.963 373.155L382.037 372.612ZM373.77 401.948C373.498 402.918 373.167 403.7 372.792 404.313L374.498 405.358C374.992 404.549 375.387 403.587 375.695 402.489L373.77 401.948ZM372.792 404.313C372.414 404.93 372.015 405.349 371.609 405.616L372.711 407.285C373.415 406.821 374.005 406.162 374.498 405.358L372.792 404.313ZM371.603 405.62C371.217 405.879 370.817 406 370.381 406V408C371.225 408 372.011 407.755 372.717 407.281L371.603 405.62Z" fill="black" mask="url(#path-8-outside-3_2_2)"/>
<defs>
<linearGradient id="paint0_linear_2_2" x1="260.918" y1="468" x2="260.918" y2="294" gradientUnits="userSpaceOnUse">
<stop stop-color="#D592FF"/>
<stop offset="0.177083" stop-color="#6586FC"/>
<stop offset="0.333333" stop-color="#77E7FF"/>
<stop offset="0.5" stop-color="#9EFF86"/>
<stop offset="0.666667" stop-color="#FDFF92"/>
<stop offset="0.833333" stop-color="#FFC092"/>
<stop offset="1" stop-color="#FF9292"/>
</linearGradient>
<linearGradient id="paint1_linear_2_2" x1="260.918" y1="468" x2="260.918" y2="294" gradientUnits="userSpaceOnUse">
<stop stop-color="#D592FF"/>
<stop offset="0.177083" stop-color="#6586FC"/>
<stop offset="0.333333" stop-color="#77E7FF"/>
<stop offset="0.5" stop-color="#9EFF86"/>
<stop offset="0.666667" stop-color="#FDFF92"/>
<stop offset="0.833333" stop-color="#FFC092"/>
<stop offset="1" stop-color="#FF9292"/>
</linearGradient>
<linearGradient id="paint2_linear_2_2" x1="260.918" y1="468" x2="260.918" y2="294" gradientUnits="userSpaceOnUse">
<stop stop-color="#D592FF"/>
<stop offset="0.177083" stop-color="#6586FC"/>
<stop offset="0.333333" stop-color="#77E7FF"/>
<stop offset="0.5" stop-color="#9EFF86"/>
<stop offset="0.666667" stop-color="#FDFF92"/>
<stop offset="0.833333" stop-color="#FFC092"/>
<stop offset="1" stop-color="#FF9292"/>
</linearGradient>
<linearGradient id="paint3_linear_2_2" x1="260.918" y1="468" x2="260.918" y2="294" gradientUnits="userSpaceOnUse">
<stop stop-color="#D592FF"/>
<stop offset="0.177083" stop-color="#6586FC"/>
<stop offset="0.333333" stop-color="#77E7FF"/>
<stop offset="0.5" stop-color="#9EFF86"/>
<stop offset="0.666667" stop-color="#FDFF92"/>
<stop offset="0.833333" stop-color="#FFC092"/>
<stop offset="1" stop-color="#FF9292"/>
</linearGradient>
<linearGradient id="paint4_linear_2_2" x1="260.918" y1="468" x2="260.918" y2="294" gradientUnits="userSpaceOnUse">
<stop stop-color="#D592FF"/>
<stop offset="0.177083" stop-color="#6586FC"/>
<stop offset="0.333333" stop-color="#77E7FF"/>
<stop offset="0.5" stop-color="#9EFF86"/>
<stop offset="0.666667" stop-color="#FDFF92"/>
<stop offset="0.833333" stop-color="#FFC092"/>
<stop offset="1" stop-color="#FF9292"/>
</linearGradient>
<linearGradient id="paint5_linear_2_2" x1="260.918" y1="468" x2="260.918" y2="294" gradientUnits="userSpaceOnUse">
<stop stop-color="#D592FF"/>
<stop offset="0.177083" stop-color="#6586FC"/>
<stop offset="0.333333" stop-color="#77E7FF"/>
<stop offset="0.5" stop-color="#9EFF86"/>
<stop offset="0.666667" stop-color="#FDFF92"/>
<stop offset="0.833333" stop-color="#FFC092"/>
<stop offset="1" stop-color="#FF9292"/>
</linearGradient>
<linearGradient id="paint6_linear_2_2" x1="260.918" y1="468" x2="260.918" y2="294" gradientUnits="userSpaceOnUse">
<stop stop-color="#D592FF"/>
<stop offset="0.177083" stop-color="#6586FC"/>
<stop offset="0.333333" stop-color="#77E7FF"/>
<stop offset="0.5" stop-color="#9EFF86"/>
<stop offset="0.666667" stop-color="#FDFF92"/>
<stop offset="0.833333" stop-color="#FFC092"/>
<stop offset="1" stop-color="#FF9292"/>
</linearGradient>
<linearGradient id="paint7_linear_2_2" x1="260.918" y1="468" x2="260.918" y2="294" gradientUnits="userSpaceOnUse">
<stop stop-color="#D592FF"/>
<stop offset="0.177083" stop-color="#6586FC"/>
<stop offset="0.333333" stop-color="#77E7FF"/>
<stop offset="0.5" stop-color="#9EFF86"/>
<stop offset="0.666667" stop-color="#FDFF92"/>
<stop offset="0.833333" stop-color="#FFC092"/>
<stop offset="1" stop-color="#FF9292"/>
</linearGradient>
</defs>
</svg>
