<svg width="214" height="174" viewBox="0 0 214 174" fill="none" xmlns="http://www.w3.org/2000/svg">
<path d="M44.5467 63.2515C42.4085 55.3189 46.7323 46.1189 54.2042 42.7028L147.606 0L140.836 10.7614C140.36 11.5187 139.735 12.1552 139.018 12.6133L54.2049 66.8177C50.2937 69.3174 45.7272 67.6312 44.5467 63.2515Z" fill="#8BC7FF"/>
<path d="M47.7567 79.1089C46.1431 77.8059 46.5142 74.8783 48.4514 73.6281L128.614 21.895C131.215 20.2163 134.257 21.3177 135.073 24.2339L136.017 27.6072C136.732 30.1615 135.452 33.1597 133.099 34.4387L50.634 79.2804C49.6498 79.8156 48.5507 79.7501 47.7567 79.1089Z" fill="#8BC7FF"/>
<path d="M146.128 51.593C148.225 59.4982 143.88 68.6279 136.422 71.9847L52.1199 109.927L58.0977 99.6883C58.5776 98.8662 59.2308 98.1731 59.9908 97.6797L136.432 48.0465C140.35 45.5025 144.959 47.1884 146.128 51.593Z" fill="#8BC7FF"/>
<path d="M160.159 25.7834C162.068 26.9107 161.815 30.1562 159.715 31.4742L56.0409 96.5687C53.4789 98.1773 50.5226 97.0925 49.6934 94.2395L48.6931 90.7978C47.9464 88.2285 49.2213 85.1831 51.5859 83.8879L157.6 25.8156C158.453 25.3481 159.402 25.3361 160.159 25.7834Z" fill="#8BC7FF"/>
<path d="M56.8633 127.389C54.7155 119.421 59.0588 110.179 66.5643 106.748L169.835 59.5328L162.172 70.798C161.7 71.4915 161.102 72.0725 160.425 72.4943L66.4863 131.021C62.5679 133.462 58.0396 131.753 56.8633 127.389Z" fill="#8BC7FF"/>
<path d="M48.0213 149.118C46.2267 147.901 46.5502 144.777 48.6027 143.504L143.615 84.5552C146.205 82.9482 149.186 84.0656 149.992 86.9454L150.955 90.3862C151.674 92.9552 150.375 95.9699 148.002 97.2366L50.7072 149.182C49.8001 149.666 48.7938 149.642 48.0213 149.118Z" fill="#8BC7FF"/>
<path d="M169.222 110.714C171.332 118.665 166.961 127.848 159.46 131.224L64.4192 174L71.3636 163.207C71.8431 162.462 72.4675 161.837 73.1813 161.388L159.57 107.082C163.498 104.613 168.059 106.329 169.222 110.714Z" fill="#8BC7FF"/>
<path d="M146.627 102.971C148.226 104.26 147.881 107.166 145.979 108.44L68.4241 160.384C65.8447 162.112 62.7897 161.055 61.9431 158.142L60.975 154.811C60.2353 152.266 61.479 149.248 63.81 147.933L143.735 102.826C144.72 102.27 145.827 102.326 146.627 102.971Z" fill="#8BC7FF"/>
<mask id="path-2-outside-1_3_10" maskUnits="userSpaceOnUse" x="0" y="53" width="214" height="54" fill="black">
<rect fill="white" y="53" width="214" height="54"/>
<path d="M29.93 89.1142C29.93 82.4148 34.2327 76.9839 39.5403 76.9839H132.04C137.347 76.9839 141.65 82.4148 141.65 89.1142C141.65 95.8135 137.347 101.244 132.04 101.244H39.5403C34.2327 101.244 29.93 95.8135 29.93 89.1142Z"/>
<path d="M9.24182 98.7288C7.65489 98.7288 6.23859 98.1688 4.99293 97.0488C3.75581 95.918 2.7789 94.3835 2.06222 92.445C1.35407 90.5066 1 88.3151 1 85.8705C1 83.4475 1.35407 81.2668 2.06222 79.3284C2.77037 77.3792 3.74301 75.8392 4.98013 74.7085C6.22579 73.5777 7.64635 73.0123 9.24182 73.0123C10.4192 73.0123 11.4985 73.3354 12.4797 73.9815C13.4694 74.6169 14.297 75.5107 14.9625 76.663C15.628 77.8045 16.0588 79.1291 16.255 80.6368H15.3848C15.1203 78.6876 14.4164 77.1046 13.2731 75.8877C12.1384 74.66 10.7946 74.0462 9.24182 74.0462C7.83406 74.0462 6.56707 74.5631 5.44086 75.5969C4.32318 76.62 3.44012 78.0253 2.7917 79.813C2.14328 81.5899 1.81906 83.609 1.81906 85.8705C1.81906 88.0674 2.13048 90.0597 2.75331 91.8474C3.38467 93.635 4.25919 95.0565 5.37687 96.1119C6.49455 97.1672 7.78286 97.6949 9.24182 97.6949C10.2912 97.6949 11.2554 97.4203 12.1341 96.8711C13.0129 96.3111 13.7424 95.525 14.3226 94.5127C14.9113 93.5004 15.2824 92.3212 15.436 90.9751H16.3062C16.1185 92.5366 15.6919 93.8989 15.0265 95.0619C14.361 96.225 13.5291 97.1296 12.5309 97.7757C11.5326 98.4111 10.4363 98.7288 9.24182 98.7288Z"/>
<path d="M22.9163 65.1294V98.2118H22.0973V65.1294H22.9163Z"/>
<path d="M151.274 71.8837V72.9176H143.493V71.8837H151.274ZM146.36 65.9392H147.179V91.4618C147.179 92.431 147.349 93.2656 147.691 93.9656C148.032 94.6548 148.484 95.1879 149.047 95.5648C149.61 95.931 150.216 96.114 150.865 96.114C151.112 96.114 151.338 96.0871 151.543 96.0333C151.756 95.9794 151.974 95.8987 152.196 95.791L152.452 96.7602C152.196 96.8786 151.944 96.9702 151.696 97.0348C151.449 97.1102 151.172 97.1479 150.865 97.1479C150.063 97.1479 149.316 96.9163 148.625 96.4533C147.942 95.9902 147.392 95.3333 146.974 94.4825C146.565 93.6318 146.36 92.6249 146.36 91.4618V65.9392Z"/>
<path d="M158.902 80.0251V96.6956H158.083V63.6131H158.902V75.8252H159.004C159.465 74.5329 160.22 73.4991 161.269 72.7237C162.327 71.9484 163.534 71.5607 164.891 71.5607C166.205 71.5607 167.365 71.9214 168.372 72.643C169.379 73.3645 170.168 74.3606 170.74 75.6314C171.311 76.9021 171.597 78.3667 171.597 80.0251V96.6956H170.778V80.0251C170.778 77.8282 170.232 76.0406 169.14 74.6621C168.048 73.2837 166.632 72.5945 164.891 72.5945C163.731 72.5945 162.698 72.9122 161.794 73.5476C160.898 74.1829 160.19 75.0606 159.67 76.1806C159.158 77.3006 158.902 78.5821 158.902 80.0251Z"/>
<path d="M178.668 96.6956V71.8837H179.487V96.6956H178.668ZM179.077 67.3608C178.856 67.3608 178.664 67.2584 178.502 67.0538C178.339 66.8492 178.258 66.6069 178.258 66.3269C178.258 66.0469 178.339 65.8046 178.502 65.6C178.664 65.3954 178.856 65.2931 179.077 65.2931C179.299 65.2931 179.491 65.3954 179.653 65.6C179.816 65.8046 179.897 66.0469 179.897 66.3269C179.897 66.6069 179.816 66.8492 179.653 67.0538C179.491 67.2584 179.299 67.3608 179.077 67.3608Z"/>
<path d="M193.312 71.8837V72.9176H185.531V71.8837H193.312ZM188.244 96.6956V67.8131C188.244 66.65 188.449 65.6431 188.858 64.7923C189.276 63.9416 189.827 63.2847 190.509 62.8216C191.2 62.3585 191.947 62.127 192.749 62.127C193.056 62.127 193.333 62.1593 193.581 62.2239C193.828 62.2885 194.071 62.3747 194.31 62.4824L194.054 63.4516C193.841 63.3654 193.632 63.2954 193.427 63.2416C193.222 63.1878 192.996 63.1608 192.749 63.1608C191.768 63.1608 190.906 63.5754 190.164 64.4047C189.43 65.2339 189.063 66.37 189.063 67.8131L189.037 96.6956H188.244Z"/>
<path d="M199.381 106C199.049 106 198.694 105.941 198.319 105.822C197.944 105.715 197.564 105.558 197.18 105.354L197.487 104.449C198.332 104.902 199.1 105.063 199.791 104.934C200.49 104.815 201.105 104.412 201.634 103.722C202.171 103.033 202.615 102.069 202.965 100.831L204.014 97.1479L196.847 71.8837H197.718L204.372 95.4033H204.475L211.13 71.8837H212L203.733 101.219C203.442 102.252 203.08 103.125 202.645 103.835C202.21 104.546 201.715 105.085 201.16 105.451C200.614 105.817 200.021 106 199.381 106Z"/>
</mask>
<path d="M9.24182 98.7288C7.65489 98.7288 6.23859 98.1688 4.99293 97.0488C3.75581 95.918 2.7789 94.3835 2.06222 92.445C1.35407 90.5066 1 88.3151 1 85.8705C1 83.4475 1.35407 81.2668 2.06222 79.3284C2.77037 77.3792 3.74301 75.8392 4.98013 74.7085C6.22579 73.5777 7.64635 73.0123 9.24182 73.0123C10.4192 73.0123 11.4985 73.3354 12.4797 73.9815C13.4694 74.6169 14.297 75.5107 14.9625 76.663C15.628 77.8045 16.0588 79.1291 16.255 80.6368H15.3848C15.1203 78.6876 14.4164 77.1046 13.2731 75.8877C12.1384 74.66 10.7946 74.0462 9.24182 74.0462C7.83406 74.0462 6.56707 74.5631 5.44086 75.5969C4.32318 76.62 3.44012 78.0253 2.7917 79.813C2.14328 81.5899 1.81906 83.609 1.81906 85.8705C1.81906 88.0674 2.13048 90.0597 2.75331 91.8474C3.38467 93.635 4.25919 95.0565 5.37687 96.1119C6.49455 97.1672 7.78286 97.6949 9.24182 97.6949C10.2912 97.6949 11.2554 97.4203 12.1341 96.8711C13.0129 96.3111 13.7424 95.525 14.3226 94.5127C14.9113 93.5004 15.2824 92.3212 15.436 90.9751H16.3062C16.1185 92.5366 15.6919 93.8989 15.0265 95.0619C14.361 96.225 13.5291 97.1296 12.5309 97.7757C11.5326 98.4111 10.4363 98.7288 9.24182 98.7288Z" fill="black"/>
<path d="M22.9163 65.1294V98.2118H22.0973V65.1294H22.9163Z" fill="black"/>
<path d="M151.274 71.8837V72.9176H143.493V71.8837H151.274ZM146.36 65.9392H147.179V91.4618C147.179 92.431 147.349 93.2656 147.691 93.9656C148.032 94.6548 148.484 95.1879 149.047 95.5648C149.61 95.931 150.216 96.114 150.865 96.114C151.112 96.114 151.338 96.0871 151.543 96.0333C151.756 95.9794 151.974 95.8987 152.196 95.791L152.452 96.7602C152.196 96.8786 151.944 96.9702 151.696 97.0348C151.449 97.1102 151.172 97.1479 150.865 97.1479C150.063 97.1479 149.316 96.9163 148.625 96.4533C147.942 95.9902 147.392 95.3333 146.974 94.4825C146.565 93.6318 146.36 92.6249 146.36 91.4618V65.9392Z" fill="black"/>
<path d="M158.902 80.0251V96.6956H158.083V63.6131H158.902V75.8252H159.004C159.465 74.5329 160.22 73.4991 161.269 72.7237C162.327 71.9484 163.534 71.5607 164.891 71.5607C166.205 71.5607 167.365 71.9214 168.372 72.643C169.379 73.3645 170.168 74.3606 170.74 75.6314C171.311 76.9021 171.597 78.3667 171.597 80.0251V96.6956H170.778V80.0251C170.778 77.8282 170.232 76.0406 169.14 74.6621C168.048 73.2837 166.632 72.5945 164.891 72.5945C163.731 72.5945 162.698 72.9122 161.794 73.5476C160.898 74.1829 160.19 75.0606 159.67 76.1806C159.158 77.3006 158.902 78.5821 158.902 80.0251Z" fill="black"/>
<path d="M178.668 96.6956V71.8837H179.487V96.6956H178.668ZM179.077 67.3608C178.856 67.3608 178.664 67.2584 178.502 67.0538C178.339 66.8492 178.258 66.6069 178.258 66.3269C178.258 66.0469 178.339 65.8046 178.502 65.6C178.664 65.3954 178.856 65.2931 179.077 65.2931C179.299 65.2931 179.491 65.3954 179.653 65.6C179.816 65.8046 179.897 66.0469 179.897 66.3269C179.897 66.6069 179.816 66.8492 179.653 67.0538C179.491 67.2584 179.299 67.3608 179.077 67.3608Z" fill="black"/>
<path d="M193.312 71.8837V72.9176H185.531V71.8837H193.312ZM188.244 96.6956V67.8131C188.244 66.65 188.449 65.6431 188.858 64.7923C189.276 63.9416 189.827 63.2847 190.509 62.8216C191.2 62.3585 191.947 62.127 192.749 62.127C193.056 62.127 193.333 62.1593 193.581 62.2239C193.828 62.2885 194.071 62.3747 194.31 62.4824L194.054 63.4516C193.841 63.3654 193.632 63.2954 193.427 63.2416C193.222 63.1878 192.996 63.1608 192.749 63.1608C191.768 63.1608 190.906 63.5754 190.164 64.4047C189.43 65.2339 189.063 66.37 189.063 67.8131L189.037 96.6956H188.244Z" fill="black"/>
<path d="M199.381 106C199.049 106 198.694 105.941 198.319 105.822C197.944 105.715 197.564 105.558 197.18 105.354L197.487 104.449C198.332 104.902 199.1 105.063 199.791 104.934C200.49 104.815 201.105 104.412 201.634 103.722C202.171 103.033 202.615 102.069 202.965 100.831L204.014 97.1479L196.847 71.8837H197.718L204.372 95.4033H204.475L211.13 71.8837H212L203.733 101.219C203.442 102.252 203.08 103.125 202.645 103.835C202.21 104.546 201.715 105.085 201.16 105.451C200.614 105.817 200.021 106 199.381 106Z" fill="black"/>
<path d="M94.272 66.0242L93.7803 65.9335L94.272 66.0242ZM80.233 59.7016C82.0081 57.115 83.8705 55.6102 85.6016 54.9346C87.3224 54.2631 88.9345 54.4005 90.2759 55.135C92.9744 56.6126 94.757 60.6421 93.7803 65.9335L94.7637 66.115C95.7862 60.5755 93.9698 56.0176 90.7562 54.2579C89.1415 53.3737 87.2193 53.2299 85.2381 54.003C83.2672 54.7722 81.26 56.4378 79.4085 59.1358L80.233 59.7016ZM93.7803 65.9335C92.7962 71.2648 90.8822 74.3204 89.2528 76.0356C88.4364 76.895 87.6855 77.4242 87.1472 77.7361C86.8779 77.8922 86.6615 77.994 86.5164 78.0557C86.4438 78.0865 86.3891 78.1073 86.3545 78.1197C86.3372 78.126 86.325 78.1301 86.318 78.1324C86.3146 78.1336 86.3124 78.1342 86.3117 78.1345C86.3113 78.1346 86.3113 78.1346 86.3116 78.1345C86.3117 78.1345 86.312 78.1344 86.3123 78.1343C86.3124 78.1343 86.3128 78.1342 86.3128 78.1341C86.3132 78.134 86.3135 78.1339 86.4582 78.6125C86.6028 79.0912 86.6032 79.091 86.6037 79.0909C86.6038 79.0909 86.6043 79.0907 86.6046 79.0906C86.6053 79.0904 86.6061 79.0902 86.6069 79.0899C86.6086 79.0894 86.6107 79.0887 86.6131 79.088C86.618 79.0864 86.6242 79.0844 86.6318 79.0819C86.647 79.0769 86.6676 79.0699 86.6934 79.0606C86.745 79.042 86.8171 79.0144 86.9074 78.9761C87.0881 78.8993 87.3416 78.7793 87.6486 78.6013C88.2631 78.2452 89.0908 77.6581 89.9778 76.7243C91.7555 74.8531 93.7485 71.6145 94.7637 66.115L93.7803 65.9335ZM4.99293 97.0488L4.31825 97.7869L4.32433 97.7924L4.99293 97.0488ZM2.06222 92.445L1.12293 92.7882L1.12428 92.7918L2.06222 92.445ZM2.06222 79.3284L3.00151 79.6715L3.00212 79.6698L2.06222 79.3284ZM4.98013 74.7085L4.308 73.968L4.30547 73.9703L4.98013 74.7085ZM12.4797 73.9815L11.9296 74.8168L11.9394 74.8231L12.4797 73.9815ZM14.9625 76.663L14.0965 77.1632L14.0986 77.1667L14.9625 76.663ZM16.255 80.6368V81.6368H17.3936L17.2467 80.5077L16.255 80.6368ZM15.3848 80.6368L14.3939 80.7713L14.5113 81.6368H15.3848V80.6368ZM13.2731 75.8877L12.5388 76.5665L12.5443 76.5724L13.2731 75.8877ZM5.44086 75.5969L6.11605 76.3345L6.1171 76.3336L5.44086 75.5969ZM2.7917 79.813L3.73111 80.1558L3.73177 80.154L2.7917 79.813ZM2.75331 91.8474L1.80897 92.1764L1.81039 92.1804L2.75331 91.8474ZM12.1341 96.8711L12.6641 97.7191L12.6715 97.7144L12.1341 96.8711ZM14.3226 94.5127L13.4581 94.01L13.455 94.0154L14.3226 94.5127ZM15.436 90.9751V89.9751H14.5436L14.4424 90.8617L15.436 90.9751ZM16.3062 90.9751L17.2991 91.0944L17.4336 89.9751H16.3062V90.9751ZM15.0265 95.0619L14.1585 94.5653L14.1585 94.5653L15.0265 95.0619ZM12.5309 97.7757L13.0678 98.6193L13.0743 98.6152L12.5309 97.7757ZM22.9163 65.1294H23.9163V64.1294H22.9163V65.1294ZM22.9163 98.2118V99.2118H23.9163V98.2118H22.9163ZM22.0973 98.2118H21.0973V99.2118H22.0973V98.2118ZM22.0973 65.1294V64.1294H21.0973V65.1294H22.0973ZM151.274 71.8837H152.274V70.8837H151.274V71.8837ZM151.274 72.9176V73.9176H152.274V72.9176H151.274ZM143.493 72.9176H142.493V73.9176H143.493V72.9176ZM143.493 71.8837V70.8837H142.493V71.8837H143.493ZM146.36 65.9392V64.9392H145.36V65.9392H146.36ZM147.179 65.9392H148.179V64.9392H147.179V65.9392ZM147.691 93.9656L146.792 94.4039L146.795 94.4094L147.691 93.9656ZM149.047 95.5648L148.491 96.3959L148.502 96.4032L149.047 95.5648ZM151.543 96.0333L151.298 95.0636L151.289 95.0662L151.543 96.0333ZM152.196 95.791L153.162 95.5356L152.852 94.3606L151.759 94.8914L152.196 95.791ZM152.452 96.7602L152.872 97.6677L153.632 97.3155L153.418 96.5048L152.452 96.7602ZM151.696 97.0348L151.444 96.0672L151.424 96.0723L151.405 96.0782L151.696 97.0348ZM148.625 96.4533L148.064 97.2808L148.068 97.284L148.625 96.4533ZM146.974 94.4825L146.073 94.9163L146.077 94.9236L146.974 94.4825ZM158.902 96.6956V97.6956H159.902V96.6956H158.902ZM158.083 96.6956H157.083V97.6956H158.083V96.6956ZM158.083 63.6131V62.6131H157.083V63.6131H158.083ZM158.902 63.6131H159.902V62.6131H158.902V63.6131ZM158.902 75.8252H157.902V76.8252H158.902V75.8252ZM159.004 75.8252V76.8252H159.709L159.946 76.161L159.004 75.8252ZM161.269 72.7237L160.678 71.9171L160.675 71.9194L161.269 72.7237ZM168.372 72.643L168.955 71.8301L168.955 71.8301L168.372 72.643ZM170.74 75.6314L169.828 76.0416L169.828 76.0416L170.74 75.6314ZM171.597 96.6956V97.6956H172.597V96.6956H171.597ZM170.778 96.6956H169.778V97.6956H170.778V96.6956ZM169.14 74.6621L168.356 75.2831L168.356 75.2831L169.14 74.6621ZM161.794 73.5476L161.219 72.7293L161.215 72.7319L161.794 73.5476ZM159.67 76.1806L158.763 75.7592L158.76 75.7649L159.67 76.1806ZM178.668 96.6956H177.668V97.6956H178.668V96.6956ZM178.668 71.8837V70.8837H177.668V71.8837H178.668ZM179.487 71.8837H180.487V70.8837H179.487V71.8837ZM179.487 96.6956V97.6956H180.487V96.6956H179.487ZM178.502 67.0538L179.285 66.4328L179.285 66.4328L178.502 67.0538ZM178.502 65.6L179.285 66.221L179.285 66.221L178.502 65.6ZM179.653 65.6L178.87 66.221L178.87 66.221L179.653 65.6ZM179.653 67.0538L178.87 66.4328L178.87 66.4328L179.653 67.0538ZM193.312 71.8837H194.312V70.8837H193.312V71.8837ZM193.312 72.9176V73.9176H194.312V72.9176H193.312ZM185.531 72.9176H184.531V73.9176H185.531V72.9176ZM185.531 71.8837V70.8837H184.531V71.8837H185.531ZM188.244 96.6956H187.244V97.6956H188.244V96.6956ZM188.858 64.7923L187.961 64.3513L187.957 64.3586L188.858 64.7923ZM190.509 62.8216L189.953 61.9908L189.948 61.9941L190.509 62.8216ZM193.581 62.2239L193.833 61.2564L193.833 61.2564L193.581 62.2239ZM194.31 62.4824L195.277 62.7377L195.493 61.9188L194.721 61.5707L194.31 62.4824ZM194.054 63.4516L193.68 64.3788L194.731 64.8036L195.021 63.7069L194.054 63.4516ZM190.164 64.4047L189.419 63.7377L189.415 63.742L190.164 64.4047ZM189.063 67.8131L190.063 67.8139V67.8131H189.063ZM189.037 96.6956V97.6956H190.037L190.037 96.6965L189.037 96.6956ZM198.319 105.822L198.62 104.869L198.607 104.865L198.595 104.861L198.319 105.822ZM197.18 105.354L196.233 105.032L195.96 105.837L196.71 106.236L197.18 105.354ZM197.487 104.449L197.959 103.568L196.92 103.011L196.54 104.128L197.487 104.449ZM199.791 104.934L199.624 103.948L199.615 103.949L199.607 103.951L199.791 104.934ZM201.634 103.722L200.845 103.107L200.84 103.114L201.634 103.722ZM202.965 100.831L202.003 100.557L202.002 100.559L202.965 100.831ZM204.014 97.1479L204.976 97.4219L205.054 97.1485L204.976 96.875L204.014 97.1479ZM196.847 71.8837V70.8837H195.524L195.885 72.1566L196.847 71.8837ZM197.718 71.8837L198.68 71.6115L198.474 70.8837H197.718V71.8837ZM204.372 95.4033L203.41 95.6755L203.616 96.4033H204.372V95.4033ZM204.475 95.4033V96.4033H205.231L205.437 95.6755L204.475 95.4033ZM211.13 71.8837V70.8837H210.373L210.167 71.6115L211.13 71.8837ZM212 71.8837L212.963 72.155L213.321 70.8837H212V71.8837ZM203.733 101.219L202.77 100.947L202.77 100.948L203.733 101.219ZM201.16 105.451L200.609 104.616L200.603 104.62L201.16 105.451ZM39.5403 77.9839H132.04V75.9839H39.5403V77.9839ZM132.04 100.244H39.5403V102.244H132.04V100.244ZM39.5403 100.244C34.9895 100.244 30.93 95.4909 30.93 89.1142H28.93C28.93 96.1362 33.4758 102.244 39.5403 102.244V100.244ZM140.65 89.1142C140.65 95.4909 136.591 100.244 132.04 100.244V102.244C138.104 102.244 142.65 96.1362 142.65 89.1142H140.65ZM132.04 77.9839C136.591 77.9839 140.65 82.7375 140.65 89.1142H142.65C142.65 82.0922 138.104 75.9839 132.04 75.9839V77.9839ZM39.5403 75.9839C33.4758 75.9839 28.93 82.0922 28.93 89.1142H30.93C30.93 82.7375 34.9895 77.9839 39.5403 77.9839V75.9839ZM9.24182 97.7288C7.91636 97.7288 6.73476 97.2701 5.66153 96.3052L4.32433 97.7924C5.74242 99.0674 7.39341 99.7288 9.24182 99.7288V97.7288ZM5.66759 96.3107C4.57248 95.3097 3.67422 93.9214 3.00017 92.0983L1.12428 92.7918C1.88358 94.8455 2.93913 96.5264 4.31827 97.7869L5.66759 96.3107ZM3.00151 92.1019C2.34017 90.2916 2 88.2192 2 85.8705H0C0 88.4111 0.367974 90.7216 1.12294 92.7882L3.00151 92.1019ZM2 85.8705C2 83.5446 2.33984 81.4827 3.00151 79.6715L1.12294 78.9852C0.368305 81.0509 0 83.3504 0 85.8705H2ZM3.00212 79.6698C3.66802 77.8369 4.5618 76.4456 5.65479 75.4466L4.30547 73.9703C2.92422 75.2328 1.87272 76.9214 1.12233 78.9869L3.00212 79.6698ZM5.65226 75.4489C6.72489 74.4752 7.9093 74.0123 9.24182 74.0123V72.0123C7.38341 72.0123 5.72669 72.6802 4.308 73.968L5.65226 75.4489ZM9.24182 74.0123C10.2242 74.0123 11.1122 74.2783 11.9297 74.8167L13.0297 73.1464C11.8848 72.3925 10.6143 72.0123 9.24182 72.0123V74.0123ZM11.9394 74.8231C12.7781 75.3615 13.5002 76.1307 14.0965 77.1632L15.8284 76.1629C15.0937 74.8908 14.1606 73.8723 13.0199 73.14L11.9394 74.8231ZM14.0986 77.1667C14.6876 78.1771 15.0818 79.3706 15.2634 80.7659L17.2467 80.5077C17.0358 78.8877 16.5683 77.432 15.8264 76.1594L14.0986 77.1667ZM16.255 79.6368H15.3848V81.6368H16.255V79.6368ZM16.3757 80.5023C16.0884 78.3847 15.3118 76.5971 14.002 75.2029L12.5443 76.5724C13.5211 77.612 14.1522 78.9905 14.3939 80.7713L16.3757 80.5023ZM14.0075 75.2089C12.6997 73.794 11.0965 73.0462 9.24182 73.0462V75.0462C10.4927 75.0462 11.5771 75.526 12.5388 76.5664L14.0075 75.2089ZM9.24182 73.0462C7.56114 73.0462 6.05805 73.6729 4.76461 74.8602L6.1171 76.3336C7.07608 75.4533 8.10698 75.0462 9.24182 75.0462V73.0462ZM4.76566 74.8593C3.50247 76.0155 2.54133 77.5705 1.85163 79.472L3.73177 80.154C4.33892 78.4801 5.14389 77.2244 6.11605 76.3345L4.76566 74.8593ZM1.8523 79.4702C1.1568 81.376 0.819063 83.5144 0.819063 85.8705H2.81906C2.81906 83.7037 3.12975 81.8037 3.73111 80.1558L1.8523 79.4702ZM0.819063 85.8705C0.819063 88.1618 1.14391 90.2675 1.80898 92.1764L3.69763 91.5183C3.11704 89.8519 2.81906 87.973 2.81906 85.8705H0.819063ZM1.81039 92.1804C2.48253 94.0835 3.43321 95.6519 4.69032 96.839L6.06341 95.3848C5.08517 94.4611 4.2868 93.1865 3.69623 91.5143L1.81039 92.1804ZM4.69032 96.839C5.98265 98.0592 7.51287 98.6949 9.24182 98.6949V96.6949C8.05286 96.6949 7.00644 96.2753 6.06341 95.3848L4.69032 96.839ZM9.24182 98.6949C10.4761 98.6949 11.6243 98.369 12.6641 97.7191L11.6042 96.0231C10.8864 96.4717 10.1063 96.6949 9.24182 96.6949V98.6949ZM12.6715 97.7144C13.7024 97.0575 14.5393 96.1456 15.1902 95.0099L13.455 94.0154C12.9455 94.9044 12.3234 95.5647 11.5967 96.0278L12.6715 97.7144ZM15.187 95.0154C15.8553 93.8663 16.2627 92.5505 16.4295 91.0884L14.4424 90.8617C14.3021 92.0919 13.9673 93.1345 13.4581 94.01L15.187 95.0154ZM15.436 91.9751H16.3062V89.9751H15.436V91.9751ZM15.3134 90.8557C15.1389 92.3071 14.747 93.5367 14.1585 94.5653L15.8944 95.5585C16.6369 94.261 17.0982 92.766 17.2991 91.0944L15.3134 90.8557ZM14.1585 94.5653C13.5621 95.6075 12.8355 96.3873 11.9875 96.9362L13.0743 98.6152C14.2227 97.8718 15.1598 96.8424 15.8944 95.5585L14.1585 94.5653ZM11.9939 96.9321C11.1577 97.4643 10.248 97.7288 9.24182 97.7288V99.7288C10.6246 99.7288 11.9075 99.3578 13.0678 98.6193L11.9939 96.9321ZM21.9163 65.1294V98.2118H23.9163V65.1294H21.9163ZM22.9163 97.2118H22.0973V99.2118H22.9163V97.2118ZM23.0973 98.2118V65.1294H21.0973V98.2118H23.0973ZM22.0973 66.1294H22.9163V64.1294H22.0973V66.1294ZM150.274 71.8837V72.9176H152.274V71.8837H150.274ZM151.274 71.9176H143.493V73.9176H151.274V71.9176ZM144.493 72.9176V71.8837H142.493V72.9176H144.493ZM143.493 72.8837H151.274V70.8837H143.493V72.8837ZM146.36 66.9392H147.179V64.9392H146.36V66.9392ZM146.179 65.9392V91.4618H148.179V65.9392H146.179ZM146.179 91.4618C146.179 92.5466 146.37 93.5381 146.792 94.4039L148.59 93.5274C148.329 92.9931 148.179 92.3154 148.179 91.4618H146.179ZM146.795 94.4094C147.203 95.2336 147.764 95.9092 148.491 96.3958L149.604 94.7338C149.204 94.4666 148.861 94.076 148.587 93.5219L146.795 94.4094ZM148.502 96.4032C149.221 96.8708 150.015 97.114 150.865 97.114V95.114C150.417 95.114 149.999 94.9911 149.592 94.7265L148.502 96.4032ZM150.865 97.114C151.184 97.114 151.497 97.0794 151.797 97.0004L151.289 95.0662C151.179 95.0949 151.04 95.114 150.865 95.114V97.114ZM151.788 97.0029C152.075 96.9304 152.356 96.8245 152.632 96.6906L151.759 94.8914C151.591 94.9728 151.438 95.0284 151.298 95.0637L151.788 97.0029ZM151.229 96.0463L151.485 97.0155L153.418 96.5048L153.162 95.5356L151.229 96.0463ZM152.032 95.8527C151.824 95.9487 151.628 96.0191 151.444 96.0672L151.949 98.0023C152.26 97.9213 152.567 97.8086 152.872 97.6677L152.032 95.8527ZM151.405 96.0782C151.268 96.12 151.091 96.1479 150.865 96.1479V98.1479C151.253 98.1479 151.63 98.1003 151.988 97.9914L151.405 96.0782ZM150.865 96.1479C150.269 96.1479 149.715 95.9796 149.182 95.6225L148.068 97.284C148.918 97.8531 149.857 98.1479 150.865 98.1479V96.1479ZM149.186 95.6257C148.668 95.2739 148.225 94.76 147.872 94.0415L146.077 94.9236C146.56 95.9066 147.217 96.7065 148.064 97.2808L149.186 95.6257ZM147.875 94.0488C147.544 93.361 147.36 92.5088 147.36 91.4618H145.36C145.36 92.741 145.585 93.9025 146.073 94.9163L147.875 94.0488ZM147.36 91.4618V65.9392H145.36V91.4618H147.36ZM157.902 80.0251V96.6956H159.902V80.0251H157.902ZM158.902 95.6956H158.083V97.6956H158.902V95.6956ZM159.083 96.6956V63.6131H157.083V96.6956H159.083ZM158.083 64.6131H158.902V62.6131H158.083V64.6131ZM157.902 63.6131V75.8252H159.902V63.6131H157.902ZM158.902 76.8252H159.004V74.8252H158.902V76.8252ZM159.946 76.161C160.344 75.0458 160.982 74.179 161.864 73.528L160.675 71.9194C159.457 72.8192 158.586 74.02 158.062 75.4894L159.946 76.161ZM161.86 73.5303C162.741 72.8851 163.739 72.5607 164.891 72.5607V70.5607C163.33 70.5607 161.914 71.0116 160.678 71.9172L161.86 73.5303ZM164.891 72.5607C166.009 72.5607 166.963 72.8636 167.79 73.4558L168.955 71.8301C167.767 70.9793 166.4 70.5607 164.891 70.5607V72.5607ZM167.79 73.4558C168.636 74.0622 169.319 74.9112 169.828 76.0416L171.652 75.2211C171.017 73.81 170.122 72.6668 168.955 71.8301L167.79 73.4558ZM169.828 76.0416C170.331 77.1612 170.597 78.4816 170.597 80.0251H172.597C172.597 78.2518 172.291 76.643 171.652 75.2211L169.828 76.0416ZM170.597 80.0251V96.6956H172.597V80.0251H170.597ZM171.597 95.6956H170.778V97.6956H171.597V95.6956ZM171.778 96.6956V80.0251H169.778V96.6956H171.778ZM171.778 80.0251C171.778 77.6602 171.188 75.6366 169.924 74.0412L168.356 75.2831C169.276 76.4446 169.778 77.9963 169.778 80.0251H171.778ZM169.924 74.0412C168.644 72.4262 166.941 71.5945 164.891 71.5945V73.5945C166.322 73.5945 167.451 74.1412 168.356 75.2831L169.924 74.0412ZM164.891 71.5945C163.536 71.5945 162.301 71.9695 161.219 72.7293L162.369 74.3658C163.096 73.8548 163.926 73.5945 164.891 73.5945V71.5945ZM161.215 72.7319C160.161 73.4799 159.347 74.5015 158.763 75.7592L160.576 76.602C161.033 75.6197 161.636 74.8859 162.372 74.3632L161.215 72.7319ZM158.76 75.7649C158.179 77.0359 157.902 78.463 157.902 80.0251H159.902C159.902 78.7011 160.136 77.5653 160.579 76.5963L158.76 75.7649ZM179.668 96.6956V71.8837H177.668V96.6956H179.668ZM178.668 72.8837H179.487V70.8837H178.668V72.8837ZM178.487 71.8837V96.6956H180.487V71.8837H178.487ZM179.487 95.6956H178.668V97.6956H179.487V95.6956ZM179.077 66.3608C179.127 66.3608 179.186 66.374 179.237 66.4015C179.285 66.4266 179.298 66.4485 179.285 66.4328L177.718 67.6748C178.032 68.0714 178.494 68.3608 179.077 68.3608V66.3608ZM179.285 66.4328C179.274 66.4182 179.258 66.399 179.258 66.3269H177.258C177.258 66.8149 177.405 67.2803 177.718 67.6748L179.285 66.4328ZM179.258 66.3269C179.258 66.2549 179.274 66.2357 179.285 66.221L177.718 64.979C177.405 65.3736 177.258 65.839 177.258 66.3269H179.258ZM179.285 66.221C179.298 66.2053 179.285 66.2272 179.237 66.2523C179.186 66.2799 179.127 66.2931 179.077 66.2931V64.2931C178.494 64.2931 178.032 64.5824 177.718 64.979L179.285 66.221ZM179.077 66.2931C179.028 66.2931 178.969 66.2799 178.918 66.2523C178.87 66.2272 178.857 66.2053 178.87 66.221L180.437 64.979C180.123 64.5824 179.661 64.2931 179.077 64.2931V66.2931ZM178.87 66.221C178.881 66.2356 178.897 66.2548 178.897 66.3269H180.897C180.897 65.839 180.75 65.3736 180.437 64.979L178.87 66.221ZM178.897 66.3269C178.897 66.399 178.881 66.4182 178.87 66.4328L180.437 67.6748C180.75 67.2802 180.897 66.8148 180.897 66.3269H178.897ZM178.87 66.4328C178.857 66.4485 178.87 66.4266 178.918 66.4015C178.969 66.374 179.028 66.3608 179.077 66.3608V68.3608C179.661 68.3608 180.123 68.0714 180.437 67.6748L178.87 66.4328ZM192.312 71.8837V72.9176H194.312V71.8837H192.312ZM193.312 71.9176H185.531V73.9176H193.312V71.9176ZM186.531 72.9176V71.8837H184.531V72.9176H186.531ZM185.531 72.8837H193.312V70.8837H185.531V72.8837ZM189.244 96.6956V67.8131H187.244V96.6956H189.244ZM189.244 67.8131C189.244 66.7661 189.428 65.9138 189.759 65.2261L187.957 64.3586C187.469 65.3724 187.244 66.5339 187.244 67.8131H189.244ZM189.756 65.2334C190.109 64.5149 190.552 64.001 191.071 63.6491L189.948 61.9941C189.101 62.5684 188.444 63.3683 187.961 64.3513L189.756 65.2334ZM191.066 63.6524C191.599 63.2953 192.153 63.127 192.749 63.127V61.127C191.741 61.127 190.802 61.4218 189.953 61.9909L191.066 63.6524ZM192.749 63.127C192.987 63.127 193.178 63.1522 193.328 63.1915L193.833 61.2564C193.489 61.1664 193.125 61.127 192.749 61.127V63.127ZM193.328 63.1915C193.52 63.2416 193.71 63.3088 193.899 63.394L194.721 61.5707C194.432 61.4406 194.136 61.3355 193.833 61.2564L193.328 63.1915ZM193.343 62.227L193.087 63.1963L195.021 63.7069L195.277 62.7377L193.343 62.227ZM194.429 62.5244C194.18 62.4237 193.93 62.3399 193.681 62.2745L193.173 64.2087C193.333 64.2509 193.502 64.3071 193.68 64.3788L194.429 62.5244ZM193.681 62.2745C193.381 62.1955 193.068 62.1608 192.749 62.1608V64.1608C192.924 64.1608 193.064 64.18 193.173 64.2087L193.681 62.2745ZM192.749 62.1608C191.443 62.1608 190.322 62.7281 189.419 63.7377L190.909 65.0716C191.49 64.4228 192.092 64.1608 192.749 64.1608V62.1608ZM189.415 63.742C188.475 64.8037 188.063 66.2016 188.063 67.8131H190.063C190.063 66.5384 190.385 65.664 190.913 65.0673L189.415 63.742ZM188.063 67.8122L188.037 96.6947L190.037 96.6965L190.063 67.8139L188.063 67.8122ZM189.037 95.6956H188.244V97.6956H189.037V95.6956ZM199.381 105C199.167 105 198.915 104.962 198.62 104.869L198.018 106.776C198.474 106.92 198.93 107 199.381 107V105ZM198.595 104.861C198.294 104.775 197.979 104.647 197.65 104.471L196.71 106.236C197.149 106.47 197.593 106.654 198.043 106.784L198.595 104.861ZM198.127 105.675L198.434 104.771L196.54 104.128L196.233 105.032L198.127 105.675ZM197.015 105.331C197.988 105.852 198.991 106.101 199.975 105.917L199.607 103.951C199.209 104.025 198.676 103.951 197.959 103.568L197.015 105.331ZM199.958 105.92C200.959 105.75 201.781 105.173 202.427 104.331L200.84 103.114C200.429 103.65 200.022 103.881 199.624 103.948L199.958 105.92ZM202.422 104.337C203.068 103.51 203.557 102.412 203.927 101.103L202.002 100.559C201.673 101.727 201.275 102.556 200.845 103.107L202.422 104.337ZM203.926 101.105L204.976 97.4219L203.052 96.8738L202.003 100.557L203.926 101.105ZM204.976 96.875L197.809 71.6108L195.885 72.1566L203.052 97.4208L204.976 96.875ZM196.847 72.8837H197.718V70.8837H196.847V72.8837ZM196.755 72.156L203.41 95.6755L205.335 95.131L198.68 71.6115L196.755 72.156ZM204.372 96.4033H204.475V94.4033H204.372V96.4033ZM205.437 95.6755L212.092 72.156L210.167 71.6115L203.513 95.131L205.437 95.6755ZM211.13 72.8837H212V70.8837H211.13V72.8837ZM211.037 71.6125L202.77 100.947L204.695 101.49L212.963 72.155L211.037 71.6125ZM202.77 100.948C202.498 101.918 202.167 102.7 201.792 103.313L203.498 104.358C203.992 103.549 204.387 102.587 204.695 101.489L202.77 100.948ZM201.792 103.313C201.414 103.93 201.015 104.349 200.609 104.616L201.711 106.285C202.415 105.821 203.005 105.162 203.498 104.358L201.792 103.313ZM200.603 104.62C200.217 104.879 199.817 105 199.381 105V107C200.225 107 201.011 106.755 201.717 106.281L200.603 104.62Z" fill="black" mask="url(#path-2-outside-1_3_10)"/>
</svg>
