<svg width="214" height="174" viewBox="0 0 214 174" fill="none" xmlns="http://www.w3.org/2000/svg">
<path d="M45.0148 63.2515C42.8766 55.3189 47.2004 46.1189 54.6723 42.7028L148.074 0L141.305 10.7614C140.828 11.5187 140.203 12.1552 139.486 12.6133L54.6731 66.8177C50.7618 69.3174 46.1953 67.6312 45.0148 63.2515Z" fill="#D592FF"/>
<path d="M48.2248 79.1089C46.6112 77.8058 46.9823 74.8783 48.9195 73.6281L129.082 21.895C131.684 20.2163 134.725 21.3177 135.541 24.2339L136.485 27.6072C137.2 30.1615 135.92 33.1597 133.568 34.4387L51.1021 79.2804C50.1179 79.8156 49.0189 79.7501 48.2248 79.1089Z" fill="#D592FF"/>
<path d="M146.596 51.593C148.694 59.4982 144.348 68.6279 136.89 71.9847L52.5881 109.927L58.5658 99.6883C59.0457 98.8662 59.699 98.1731 60.459 97.6797L136.9 48.0465C140.818 45.5025 145.427 47.1884 146.596 51.593Z" fill="#D592FF"/>
<path d="M160.627 25.7834C162.536 26.9107 162.283 30.1562 160.184 31.4742L56.509 96.5687C53.947 98.1773 50.9907 97.0925 50.1615 94.2395L49.1613 90.7978C48.4145 88.2285 49.6894 85.1831 52.054 83.8879L158.068 25.8156C158.921 25.3481 159.87 25.3361 160.627 25.7834Z" fill="#D592FF"/>
<path d="M57.3315 127.389C55.1837 119.421 59.5269 110.179 67.0324 106.748L170.304 59.5328L162.64 70.798C162.168 71.4915 161.57 72.0725 160.893 72.4943L66.9545 131.021C63.0361 133.462 58.5078 131.753 57.3315 127.389Z" fill="#D592FF"/>
<path d="M48.4895 149.118C46.6948 147.901 47.0183 144.777 49.0708 143.504L144.083 84.5552C146.673 82.9482 149.654 84.0656 150.46 86.9454L151.424 90.3862C152.143 92.9552 150.843 95.9699 148.471 97.2366L51.1753 149.182C50.2682 149.666 49.2619 149.642 48.4895 149.118Z" fill="#D592FF"/>
<path d="M169.691 110.714C171.8 118.665 167.43 127.848 159.928 131.224L64.8873 174L71.8318 163.207C72.3112 162.462 72.9356 161.837 73.6494 161.388L160.038 107.082C163.967 104.613 168.527 106.329 169.691 110.714Z" fill="#D592FF"/>
<path d="M147.095 102.971C148.694 104.26 148.35 107.166 146.448 108.44L68.8923 160.384C66.3129 162.112 63.2578 161.055 62.4112 158.142L61.4431 154.811C60.7034 152.266 61.9471 149.248 64.2781 147.933L144.203 102.826C145.188 102.27 146.295 102.326 147.095 102.971Z" fill="#D592FF"/>
<mask id="path-2-outside-1_3_11" maskUnits="userSpaceOnUse" x="0" y="60" width="214" height="54" fill="black">
<rect fill="white" y="60" width="214" height="54"/>
<path d="M29.93 96.1142C29.93 89.4148 34.2327 83.9839 39.5403 83.9839H132.04C137.347 83.9839 141.65 89.4148 141.65 96.1142C141.65 102.814 137.347 108.244 132.04 108.244H39.5403C34.2327 108.244 29.93 102.814 29.93 96.1142Z"/>
<path d="M9.24182 105.729C7.65489 105.729 6.23859 105.169 4.99293 104.049C3.75581 102.918 2.7789 101.383 2.06222 99.445C1.35407 97.5066 1 95.3151 1 92.8705C1 90.4475 1.35407 88.2668 2.06222 86.3284C2.77037 84.3792 3.74301 82.8392 4.98013 81.7085C6.22579 80.5777 7.64635 80.0123 9.24182 80.0123C10.4192 80.0123 11.4985 80.3354 12.4797 80.9815C13.4694 81.6169 14.297 82.5107 14.9625 83.663C15.628 84.8045 16.0588 86.1291 16.255 87.6368H15.3848C15.1203 85.6876 14.4164 84.1046 13.2731 82.8877C12.1384 81.66 10.7946 81.0462 9.24182 81.0462C7.83406 81.0462 6.56707 81.5631 5.44086 82.5969C4.32318 83.62 3.44012 85.0253 2.7917 86.813C2.14328 88.5899 1.81906 90.609 1.81906 92.8705C1.81906 95.0674 2.13048 97.0597 2.75331 98.8474C3.38467 100.635 4.25919 102.057 5.37687 103.112C6.49455 104.167 7.78286 104.695 9.24182 104.695C10.2912 104.695 11.2554 104.42 12.1341 103.871C13.0129 103.311 13.7424 102.525 14.3226 101.513C14.9113 100.5 15.2824 99.3212 15.436 97.9751H16.3062C16.1185 99.5366 15.6919 100.899 15.0265 102.062C14.361 103.225 13.5291 104.13 12.5309 104.776C11.5326 105.411 10.4363 105.729 9.24182 105.729Z"/>
<path d="M22.9163 72.1294V105.212H22.0973V72.1294H22.9163Z"/>
<path d="M151.274 78.8837V79.9176H143.493V78.8837H151.274ZM146.36 72.9392H147.179V98.4618C147.179 99.431 147.349 100.266 147.691 100.966C148.032 101.655 148.484 102.188 149.047 102.565C149.61 102.931 150.216 103.114 150.865 103.114C151.112 103.114 151.338 103.087 151.543 103.033C151.756 102.979 151.974 102.899 152.196 102.791L152.452 103.76C152.196 103.879 151.944 103.97 151.696 104.035C151.449 104.11 151.172 104.148 150.865 104.148C150.063 104.148 149.316 103.916 148.625 103.453C147.942 102.99 147.392 102.333 146.974 101.483C146.565 100.632 146.36 99.6249 146.36 98.4618V72.9392Z"/>
<path d="M158.902 87.0251V103.696H158.083V70.6131H158.902V82.8252H159.004C159.465 81.5329 160.22 80.4991 161.269 79.7237C162.327 78.9484 163.534 78.5607 164.891 78.5607C166.205 78.5607 167.365 78.9214 168.372 79.643C169.379 80.3645 170.168 81.3606 170.74 82.6314C171.311 83.9021 171.597 85.3667 171.597 87.0251V103.696H170.778V87.0251C170.778 84.8282 170.232 83.0406 169.14 81.6621C168.048 80.2837 166.632 79.5945 164.891 79.5945C163.731 79.5945 162.698 79.9122 161.794 80.5476C160.898 81.1829 160.19 82.0606 159.67 83.1806C159.158 84.3006 158.902 85.5821 158.902 87.0251Z"/>
<path d="M178.668 103.696V78.8837H179.487V103.696H178.668ZM179.077 74.3608C178.856 74.3608 178.664 74.2584 178.502 74.0538C178.339 73.8492 178.258 73.6069 178.258 73.3269C178.258 73.0469 178.339 72.8046 178.502 72.6C178.664 72.3954 178.856 72.2931 179.077 72.2931C179.299 72.2931 179.491 72.3954 179.653 72.6C179.816 72.8046 179.897 73.0469 179.897 73.3269C179.897 73.6069 179.816 73.8492 179.653 74.0538C179.491 74.2584 179.299 74.3608 179.077 74.3608Z"/>
<path d="M193.312 78.8837V79.9176H185.531V78.8837H193.312ZM188.244 103.696V74.8131C188.244 73.65 188.449 72.6431 188.858 71.7923C189.276 70.9416 189.827 70.2847 190.509 69.8216C191.2 69.3585 191.947 69.127 192.749 69.127C193.056 69.127 193.333 69.1593 193.581 69.2239C193.828 69.2885 194.071 69.3747 194.31 69.4824L194.054 70.4516C193.841 70.3654 193.632 70.2954 193.427 70.2416C193.222 70.1878 192.996 70.1608 192.749 70.1608C191.768 70.1608 190.906 70.5754 190.164 71.4047C189.43 72.2339 189.063 73.37 189.063 74.8131L189.037 103.696H188.244Z"/>
<path d="M199.381 113C199.049 113 198.694 112.941 198.319 112.822C197.944 112.715 197.564 112.558 197.18 112.354L197.487 111.449C198.332 111.902 199.1 112.063 199.791 111.934C200.49 111.815 201.105 111.412 201.634 110.722C202.171 110.033 202.615 109.069 202.965 107.831L204.014 104.148L196.847 78.8837H197.718L204.372 102.403H204.475L211.13 78.8837H212L203.733 108.219C203.442 109.252 203.08 110.125 202.645 110.835C202.21 111.546 201.715 112.085 201.16 112.451C200.614 112.817 200.021 113 199.381 113Z"/>
</mask>
<path d="M9.24182 105.729C7.65489 105.729 6.23859 105.169 4.99293 104.049C3.75581 102.918 2.7789 101.383 2.06222 99.445C1.35407 97.5066 1 95.3151 1 92.8705C1 90.4475 1.35407 88.2668 2.06222 86.3284C2.77037 84.3792 3.74301 82.8392 4.98013 81.7085C6.22579 80.5777 7.64635 80.0123 9.24182 80.0123C10.4192 80.0123 11.4985 80.3354 12.4797 80.9815C13.4694 81.6169 14.297 82.5107 14.9625 83.663C15.628 84.8045 16.0588 86.1291 16.255 87.6368H15.3848C15.1203 85.6876 14.4164 84.1046 13.2731 82.8877C12.1384 81.66 10.7946 81.0462 9.24182 81.0462C7.83406 81.0462 6.56707 81.5631 5.44086 82.5969C4.32318 83.62 3.44012 85.0253 2.7917 86.813C2.14328 88.5899 1.81906 90.609 1.81906 92.8705C1.81906 95.0674 2.13048 97.0597 2.75331 98.8474C3.38467 100.635 4.25919 102.057 5.37687 103.112C6.49455 104.167 7.78286 104.695 9.24182 104.695C10.2912 104.695 11.2554 104.42 12.1341 103.871C13.0129 103.311 13.7424 102.525 14.3226 101.513C14.9113 100.5 15.2824 99.3212 15.436 97.9751H16.3062C16.1185 99.5366 15.6919 100.899 15.0265 102.062C14.361 103.225 13.5291 104.13 12.5309 104.776C11.5326 105.411 10.4363 105.729 9.24182 105.729Z" fill="black"/>
<path d="M22.9163 72.1294V105.212H22.0973V72.1294H22.9163Z" fill="black"/>
<path d="M151.274 78.8837V79.9176H143.493V78.8837H151.274ZM146.36 72.9392H147.179V98.4618C147.179 99.431 147.349 100.266 147.691 100.966C148.032 101.655 148.484 102.188 149.047 102.565C149.61 102.931 150.216 103.114 150.865 103.114C151.112 103.114 151.338 103.087 151.543 103.033C151.756 102.979 151.974 102.899 152.196 102.791L152.452 103.76C152.196 103.879 151.944 103.97 151.696 104.035C151.449 104.11 151.172 104.148 150.865 104.148C150.063 104.148 149.316 103.916 148.625 103.453C147.942 102.99 147.392 102.333 146.974 101.483C146.565 100.632 146.36 99.6249 146.36 98.4618V72.9392Z" fill="black"/>
<path d="M158.902 87.0251V103.696H158.083V70.6131H158.902V82.8252H159.004C159.465 81.5329 160.22 80.4991 161.269 79.7237C162.327 78.9484 163.534 78.5607 164.891 78.5607C166.205 78.5607 167.365 78.9214 168.372 79.643C169.379 80.3645 170.168 81.3606 170.74 82.6314C171.311 83.9021 171.597 85.3667 171.597 87.0251V103.696H170.778V87.0251C170.778 84.8282 170.232 83.0406 169.14 81.6621C168.048 80.2837 166.632 79.5945 164.891 79.5945C163.731 79.5945 162.698 79.9122 161.794 80.5476C160.898 81.1829 160.19 82.0606 159.67 83.1806C159.158 84.3006 158.902 85.5821 158.902 87.0251Z" fill="black"/>
<path d="M178.668 103.696V78.8837H179.487V103.696H178.668ZM179.077 74.3608C178.856 74.3608 178.664 74.2584 178.502 74.0538C178.339 73.8492 178.258 73.6069 178.258 73.3269C178.258 73.0469 178.339 72.8046 178.502 72.6C178.664 72.3954 178.856 72.2931 179.077 72.2931C179.299 72.2931 179.491 72.3954 179.653 72.6C179.816 72.8046 179.897 73.0469 179.897 73.3269C179.897 73.6069 179.816 73.8492 179.653 74.0538C179.491 74.2584 179.299 74.3608 179.077 74.3608Z" fill="black"/>
<path d="M193.312 78.8837V79.9176H185.531V78.8837H193.312ZM188.244 103.696V74.8131C188.244 73.65 188.449 72.6431 188.858 71.7923C189.276 70.9416 189.827 70.2847 190.509 69.8216C191.2 69.3585 191.947 69.127 192.749 69.127C193.056 69.127 193.333 69.1593 193.581 69.2239C193.828 69.2885 194.071 69.3747 194.31 69.4824L194.054 70.4516C193.841 70.3654 193.632 70.2954 193.427 70.2416C193.222 70.1878 192.996 70.1608 192.749 70.1608C191.768 70.1608 190.906 70.5754 190.164 71.4047C189.43 72.2339 189.063 73.37 189.063 74.8131L189.037 103.696H188.244Z" fill="black"/>
<path d="M199.381 113C199.049 113 198.694 112.941 198.319 112.822C197.944 112.715 197.564 112.558 197.18 112.354L197.487 111.449C198.332 111.902 199.1 112.063 199.791 111.934C200.49 111.815 201.105 111.412 201.634 110.722C202.171 110.033 202.615 109.069 202.965 107.831L204.014 104.148L196.847 78.8837H197.718L204.372 102.403H204.475L211.13 78.8837H212L203.733 108.219C203.442 109.252 203.08 110.125 202.645 110.835C202.21 111.546 201.715 112.085 201.16 112.451C200.614 112.817 200.021 113 199.381 113Z" fill="black"/>
<path d="M94.272 73.0242L93.7803 72.9335L94.272 73.0242ZM80.233 66.7016C82.0081 64.115 83.8705 62.6102 85.6016 61.9346C87.3224 61.2631 88.9345 61.4005 90.2759 62.135C92.9744 63.6126 94.757 67.6421 93.7803 72.9335L94.7637 73.115C95.7862 67.5755 93.9698 63.0176 90.7562 61.2579C89.1415 60.3737 87.2193 60.2299 85.2381 61.003C83.2672 61.7722 81.26 63.4378 79.4085 66.1358L80.233 66.7016ZM93.7803 72.9335C92.7962 78.2648 90.8822 81.3204 89.2528 83.0356C88.4364 83.895 87.6855 84.4242 87.1472 84.7361C86.8779 84.8922 86.6615 84.994 86.5164 85.0557C86.4438 85.0865 86.3891 85.1073 86.3545 85.1197C86.3372 85.126 86.325 85.1301 86.318 85.1324C86.3146 85.1336 86.3124 85.1342 86.3117 85.1345C86.3113 85.1346 86.3113 85.1346 86.3116 85.1345C86.3117 85.1345 86.312 85.1344 86.3123 85.1343C86.3124 85.1343 86.3128 85.1342 86.3128 85.1341C86.3132 85.134 86.3135 85.1339 86.4582 85.6125C86.6028 86.0912 86.6032 86.091 86.6037 86.0909C86.6038 86.0909 86.6043 86.0907 86.6046 86.0906C86.6053 86.0904 86.6061 86.0902 86.6069 86.0899C86.6086 86.0894 86.6107 86.0887 86.6131 86.088C86.618 86.0864 86.6242 86.0844 86.6318 86.0819C86.647 86.0769 86.6676 86.0699 86.6934 86.0606C86.745 86.042 86.8171 86.0144 86.9074 85.9761C87.0881 85.8993 87.3416 85.7793 87.6486 85.6013C88.2631 85.2452 89.0908 84.6581 89.9778 83.7243C91.7555 81.8531 93.7485 78.6145 94.7637 73.115L93.7803 72.9335ZM4.99293 104.049L4.31825 104.787L4.32433 104.792L4.99293 104.049ZM2.06222 99.445L1.12293 99.7882L1.12428 99.7918L2.06222 99.445ZM2.06222 86.3284L3.00151 86.6715L3.00212 86.6698L2.06222 86.3284ZM4.98013 81.7085L4.308 80.968L4.30547 80.9703L4.98013 81.7085ZM12.4797 80.9815L11.9296 81.8168L11.9394 81.8231L12.4797 80.9815ZM14.9625 83.663L14.0965 84.1632L14.0986 84.1667L14.9625 83.663ZM16.255 87.6368V88.6368H17.3936L17.2467 87.5077L16.255 87.6368ZM15.3848 87.6368L14.3939 87.7713L14.5113 88.6368H15.3848V87.6368ZM13.2731 82.8877L12.5388 83.5665L12.5443 83.5724L13.2731 82.8877ZM5.44086 82.5969L6.11605 83.3345L6.1171 83.3336L5.44086 82.5969ZM2.7917 86.813L3.73111 87.1558L3.73177 87.154L2.7917 86.813ZM2.75331 98.8474L1.80897 99.1764L1.81039 99.1804L2.75331 98.8474ZM12.1341 103.871L12.6641 104.719L12.6715 104.714L12.1341 103.871ZM14.3226 101.513L13.4581 101.01L13.455 101.015L14.3226 101.513ZM15.436 97.9751V96.9751H14.5436L14.4424 97.8617L15.436 97.9751ZM16.3062 97.9751L17.2991 98.0944L17.4336 96.9751H16.3062V97.9751ZM15.0265 102.062L14.1585 101.565L14.1585 101.565L15.0265 102.062ZM12.5309 104.776L13.0678 105.619L13.0743 105.615L12.5309 104.776ZM22.9163 72.1294H23.9163V71.1294H22.9163V72.1294ZM22.9163 105.212V106.212H23.9163V105.212H22.9163ZM22.0973 105.212H21.0973V106.212H22.0973V105.212ZM22.0973 72.1294V71.1294H21.0973V72.1294H22.0973ZM151.274 78.8837H152.274V77.8837H151.274V78.8837ZM151.274 79.9176V80.9176H152.274V79.9176H151.274ZM143.493 79.9176H142.493V80.9176H143.493V79.9176ZM143.493 78.8837V77.8837H142.493V78.8837H143.493ZM146.36 72.9392V71.9392H145.36V72.9392H146.36ZM147.179 72.9392H148.179V71.9392H147.179V72.9392ZM147.691 100.966L146.792 101.404L146.795 101.409L147.691 100.966ZM149.047 102.565L148.491 103.396L148.502 103.403L149.047 102.565ZM151.543 103.033L151.298 102.064L151.289 102.066L151.543 103.033ZM152.196 102.791L153.162 102.536L152.852 101.361L151.759 101.891L152.196 102.791ZM152.452 103.76L152.872 104.668L153.632 104.316L153.418 103.505L152.452 103.76ZM151.696 104.035L151.444 103.067L151.424 103.072L151.405 103.078L151.696 104.035ZM148.625 103.453L148.064 104.281L148.068 104.284L148.625 103.453ZM146.974 101.483L146.073 101.916L146.077 101.924L146.974 101.483ZM158.902 103.696V104.696H159.902V103.696H158.902ZM158.083 103.696H157.083V104.696H158.083V103.696ZM158.083 70.6131V69.6131H157.083V70.6131H158.083ZM158.902 70.6131H159.902V69.6131H158.902V70.6131ZM158.902 82.8252H157.902V83.8252H158.902V82.8252ZM159.004 82.8252V83.8252H159.709L159.946 83.161L159.004 82.8252ZM161.269 79.7237L160.678 78.9171L160.675 78.9194L161.269 79.7237ZM168.372 79.643L168.955 78.8301L168.955 78.8301L168.372 79.643ZM170.74 82.6314L169.828 83.0416L169.828 83.0416L170.74 82.6314ZM171.597 103.696V104.696H172.597V103.696H171.597ZM170.778 103.696H169.778V104.696H170.778V103.696ZM169.14 81.6621L168.356 82.2831L168.356 82.2831L169.14 81.6621ZM161.794 80.5476L161.219 79.7293L161.215 79.7319L161.794 80.5476ZM159.67 83.1806L158.763 82.7592L158.76 82.7649L159.67 83.1806ZM178.668 103.696H177.668V104.696H178.668V103.696ZM178.668 78.8837V77.8837H177.668V78.8837H178.668ZM179.487 78.8837H180.487V77.8837H179.487V78.8837ZM179.487 103.696V104.696H180.487V103.696H179.487ZM178.502 74.0538L179.285 73.4328L179.285 73.4328L178.502 74.0538ZM178.502 72.6L179.285 73.221L179.285 73.221L178.502 72.6ZM179.653 72.6L178.87 73.221L178.87 73.221L179.653 72.6ZM179.653 74.0538L178.87 73.4328L178.87 73.4328L179.653 74.0538ZM193.312 78.8837H194.312V77.8837H193.312V78.8837ZM193.312 79.9176V80.9176H194.312V79.9176H193.312ZM185.531 79.9176H184.531V80.9176H185.531V79.9176ZM185.531 78.8837V77.8837H184.531V78.8837H185.531ZM188.244 103.696H187.244V104.696H188.244V103.696ZM188.858 71.7923L187.961 71.3513L187.957 71.3586L188.858 71.7923ZM190.509 69.8216L189.953 68.9908L189.948 68.9941L190.509 69.8216ZM193.581 69.2239L193.833 68.2564L193.833 68.2564L193.581 69.2239ZM194.31 69.4824L195.277 69.7377L195.493 68.9188L194.721 68.5707L194.31 69.4824ZM194.054 70.4516L193.68 71.3788L194.731 71.8036L195.021 70.7069L194.054 70.4516ZM190.164 71.4047L189.419 70.7377L189.415 70.742L190.164 71.4047ZM189.063 74.8131L190.063 74.8139V74.8131H189.063ZM189.037 103.696V104.696H190.037L190.037 103.696L189.037 103.696ZM198.319 112.822L198.62 111.869L198.607 111.865L198.595 111.861L198.319 112.822ZM197.18 112.354L196.233 112.032L195.96 112.837L196.71 113.236L197.18 112.354ZM197.487 111.449L197.959 110.568L196.92 110.011L196.54 111.128L197.487 111.449ZM199.791 111.934L199.624 110.948L199.615 110.949L199.607 110.951L199.791 111.934ZM201.634 110.722L200.845 110.107L200.84 110.114L201.634 110.722ZM202.965 107.831L202.003 107.557L202.002 107.559L202.965 107.831ZM204.014 104.148L204.976 104.422L205.054 104.148L204.976 103.875L204.014 104.148ZM196.847 78.8837V77.8837H195.524L195.885 79.1566L196.847 78.8837ZM197.718 78.8837L198.68 78.6115L198.474 77.8837H197.718V78.8837ZM204.372 102.403L203.41 102.676L203.616 103.403H204.372V102.403ZM204.475 102.403V103.403H205.231L205.437 102.676L204.475 102.403ZM211.13 78.8837V77.8837H210.373L210.167 78.6115L211.13 78.8837ZM212 78.8837L212.963 79.155L213.321 77.8837H212V78.8837ZM203.733 108.219L202.77 107.947L202.77 107.948L203.733 108.219ZM201.16 112.451L200.609 111.616L200.603 111.62L201.16 112.451ZM39.5403 84.9839H132.04V82.9839H39.5403V84.9839ZM132.04 107.244H39.5403V109.244H132.04V107.244ZM39.5403 107.244C34.9895 107.244 30.93 102.491 30.93 96.1142H28.93C28.93 103.136 33.4758 109.244 39.5403 109.244V107.244ZM140.65 96.1142C140.65 102.491 136.591 107.244 132.04 107.244V109.244C138.104 109.244 142.65 103.136 142.65 96.1142H140.65ZM132.04 84.9839C136.591 84.9839 140.65 89.7375 140.65 96.1142H142.65C142.65 89.0922 138.104 82.9839 132.04 82.9839V84.9839ZM39.5403 82.9839C33.4758 82.9839 28.93 89.0922 28.93 96.1142H30.93C30.93 89.7375 34.9895 84.9839 39.5403 84.9839V82.9839ZM9.24182 104.729C7.91636 104.729 6.73476 104.27 5.66153 103.305L4.32433 104.792C5.74242 106.067 7.39341 106.729 9.24182 106.729V104.729ZM5.66759 103.311C4.57248 102.31 3.67422 100.921 3.00017 99.0983L1.12428 99.7918C1.88358 101.846 2.93913 103.526 4.31827 104.787L5.66759 103.311ZM3.00151 99.1019C2.34017 97.2916 2 95.2192 2 92.8705H0C0 95.4111 0.367974 97.7216 1.12294 99.7882L3.00151 99.1019ZM2 92.8705C2 90.5446 2.33984 88.4827 3.00151 86.6715L1.12294 85.9852C0.368305 88.0509 0 90.3504 0 92.8705H2ZM3.00212 86.6698C3.66802 84.8369 4.5618 83.4456 5.65479 82.4466L4.30547 80.9703C2.92422 82.2328 1.87272 83.9214 1.12233 85.9869L3.00212 86.6698ZM5.65226 82.4489C6.72489 81.4752 7.9093 81.0123 9.24182 81.0123V79.0123C7.38341 79.0123 5.72669 79.6802 4.308 80.968L5.65226 82.4489ZM9.24182 81.0123C10.2242 81.0123 11.1122 81.2783 11.9297 81.8167L13.0297 80.1464C11.8848 79.3925 10.6143 79.0123 9.24182 79.0123V81.0123ZM11.9394 81.8231C12.7781 82.3615 13.5002 83.1307 14.0965 84.1632L15.8284 83.1629C15.0937 81.8908 14.1606 80.8723 13.0199 80.14L11.9394 81.8231ZM14.0986 84.1667C14.6876 85.1771 15.0818 86.3706 15.2634 87.7659L17.2467 87.5077C17.0358 85.8877 16.5683 84.432 15.8264 83.1594L14.0986 84.1667ZM16.255 86.6368H15.3848V88.6368H16.255V86.6368ZM16.3757 87.5023C16.0884 85.3847 15.3118 83.5971 14.002 82.2029L12.5443 83.5724C13.5211 84.612 14.1522 85.9905 14.3939 87.7713L16.3757 87.5023ZM14.0075 82.2089C12.6997 80.794 11.0965 80.0462 9.24182 80.0462V82.0462C10.4927 82.0462 11.5771 82.526 12.5388 83.5664L14.0075 82.2089ZM9.24182 80.0462C7.56114 80.0462 6.05805 80.6729 4.76461 81.8602L6.1171 83.3336C7.07608 82.4533 8.10698 82.0462 9.24182 82.0462V80.0462ZM4.76566 81.8593C3.50247 83.0155 2.54133 84.5705 1.85163 86.472L3.73177 87.154C4.33892 85.4801 5.14389 84.2244 6.11605 83.3345L4.76566 81.8593ZM1.8523 86.4702C1.1568 88.376 0.819063 90.5144 0.819063 92.8705H2.81906C2.81906 90.7037 3.12975 88.8037 3.73111 87.1558L1.8523 86.4702ZM0.819063 92.8705C0.819063 95.1618 1.14391 97.2675 1.80898 99.1764L3.69763 98.5183C3.11704 96.8519 2.81906 94.973 2.81906 92.8705H0.819063ZM1.81039 99.1804C2.48253 101.084 3.43321 102.652 4.69032 103.839L6.06341 102.385C5.08517 101.461 4.2868 100.187 3.69623 98.5143L1.81039 99.1804ZM4.69032 103.839C5.98265 105.059 7.51287 105.695 9.24182 105.695V103.695C8.05286 103.695 7.00644 103.275 6.06341 102.385L4.69032 103.839ZM9.24182 105.695C10.4761 105.695 11.6243 105.369 12.6641 104.719L11.6042 103.023C10.8864 103.472 10.1063 103.695 9.24182 103.695V105.695ZM12.6715 104.714C13.7024 104.058 14.5393 103.146 15.1902 102.01L13.455 101.015C12.9455 101.904 12.3234 102.565 11.5967 103.028L12.6715 104.714ZM15.187 102.015C15.8553 100.866 16.2627 99.5505 16.4295 98.0884L14.4424 97.8617C14.3021 99.0919 13.9673 100.134 13.4581 101.01L15.187 102.015ZM15.436 98.9751H16.3062V96.9751H15.436V98.9751ZM15.3134 97.8557C15.1389 99.3071 14.747 100.537 14.1585 101.565L15.8944 102.559C16.6369 101.261 17.0982 99.766 17.2991 98.0944L15.3134 97.8557ZM14.1585 101.565C13.5621 102.608 12.8355 103.387 11.9875 103.936L13.0743 105.615C14.2227 104.872 15.1598 103.842 15.8944 102.559L14.1585 101.565ZM11.9939 103.932C11.1577 104.464 10.248 104.729 9.24182 104.729V106.729C10.6246 106.729 11.9075 106.358 13.0678 105.619L11.9939 103.932ZM21.9163 72.1294V105.212H23.9163V72.1294H21.9163ZM22.9163 104.212H22.0973V106.212H22.9163V104.212ZM23.0973 105.212V72.1294H21.0973V105.212H23.0973ZM22.0973 73.1294H22.9163V71.1294H22.0973V73.1294ZM150.274 78.8837V79.9176H152.274V78.8837H150.274ZM151.274 78.9176H143.493V80.9176H151.274V78.9176ZM144.493 79.9176V78.8837H142.493V79.9176H144.493ZM143.493 79.8837H151.274V77.8837H143.493V79.8837ZM146.36 73.9392H147.179V71.9392H146.36V73.9392ZM146.179 72.9392V98.4618H148.179V72.9392H146.179ZM146.179 98.4618C146.179 99.5466 146.37 100.538 146.792 101.404L148.59 100.527C148.329 99.9931 148.179 99.3154 148.179 98.4618H146.179ZM146.795 101.409C147.203 102.234 147.764 102.909 148.491 103.396L149.604 101.734C149.204 101.467 148.861 101.076 148.587 100.522L146.795 101.409ZM148.502 103.403C149.221 103.871 150.015 104.114 150.865 104.114V102.114C150.417 102.114 149.999 101.991 149.592 101.726L148.502 103.403ZM150.865 104.114C151.184 104.114 151.497 104.079 151.797 104L151.289 102.066C151.179 102.095 151.04 102.114 150.865 102.114V104.114ZM151.788 104.003C152.075 103.93 152.356 103.825 152.632 103.691L151.759 101.891C151.591 101.973 151.438 102.028 151.298 102.064L151.788 104.003ZM151.229 103.046L151.485 104.016L153.418 103.505L153.162 102.536L151.229 103.046ZM152.032 102.853C151.824 102.949 151.628 103.019 151.444 103.067L151.949 105.002C152.26 104.921 152.567 104.809 152.872 104.668L152.032 102.853ZM151.405 103.078C151.268 103.12 151.091 103.148 150.865 103.148V105.148C151.253 105.148 151.63 105.1 151.988 104.991L151.405 103.078ZM150.865 103.148C150.269 103.148 149.715 102.98 149.182 102.623L148.068 104.284C148.918 104.853 149.857 105.148 150.865 105.148V103.148ZM149.186 102.626C148.668 102.274 148.225 101.76 147.872 101.042L146.077 101.924C146.56 102.907 147.217 103.706 148.064 104.281L149.186 102.626ZM147.875 101.049C147.544 100.361 147.36 99.5088 147.36 98.4618H145.36C145.36 99.741 145.585 100.903 146.073 101.916L147.875 101.049ZM147.36 98.4618V72.9392H145.36V98.4618H147.36ZM157.902 87.0251V103.696H159.902V87.0251H157.902ZM158.902 102.696H158.083V104.696H158.902V102.696ZM159.083 103.696V70.6131H157.083V103.696H159.083ZM158.083 71.6131H158.902V69.6131H158.083V71.6131ZM157.902 70.6131V82.8252H159.902V70.6131H157.902ZM158.902 83.8252H159.004V81.8252H158.902V83.8252ZM159.946 83.161C160.344 82.0458 160.982 81.179 161.864 80.528L160.675 78.9194C159.457 79.8192 158.586 81.02 158.062 82.4894L159.946 83.161ZM161.86 80.5303C162.741 79.8851 163.739 79.5607 164.891 79.5607V77.5607C163.33 77.5607 161.914 78.0116 160.678 78.9172L161.86 80.5303ZM164.891 79.5607C166.009 79.5607 166.963 79.8636 167.79 80.4558L168.955 78.8301C167.767 77.9793 166.4 77.5607 164.891 77.5607V79.5607ZM167.79 80.4558C168.636 81.0622 169.319 81.9112 169.828 83.0416L171.652 82.2211C171.017 80.81 170.122 79.6668 168.955 78.8301L167.79 80.4558ZM169.828 83.0416C170.331 84.1612 170.597 85.4816 170.597 87.0251H172.597C172.597 85.2518 172.291 83.643 171.652 82.2211L169.828 83.0416ZM170.597 87.0251V103.696H172.597V87.0251H170.597ZM171.597 102.696H170.778V104.696H171.597V102.696ZM171.778 103.696V87.0251H169.778V103.696H171.778ZM171.778 87.0251C171.778 84.6602 171.188 82.6366 169.924 81.0412L168.356 82.2831C169.276 83.4446 169.778 84.9963 169.778 87.0251H171.778ZM169.924 81.0412C168.644 79.4262 166.941 78.5945 164.891 78.5945V80.5945C166.322 80.5945 167.451 81.1412 168.356 82.2831L169.924 81.0412ZM164.891 78.5945C163.536 78.5945 162.301 78.9695 161.219 79.7293L162.369 81.3658C163.096 80.8548 163.926 80.5945 164.891 80.5945V78.5945ZM161.215 79.7319C160.161 80.4799 159.347 81.5015 158.763 82.7592L160.576 83.602C161.033 82.6197 161.636 81.8859 162.372 81.3632L161.215 79.7319ZM158.76 82.7649C158.179 84.0359 157.902 85.463 157.902 87.0251H159.902C159.902 85.7011 160.136 84.5653 160.579 83.5963L158.76 82.7649ZM179.668 103.696V78.8837H177.668V103.696H179.668ZM178.668 79.8837H179.487V77.8837H178.668V79.8837ZM178.487 78.8837V103.696H180.487V78.8837H178.487ZM179.487 102.696H178.668V104.696H179.487V102.696ZM179.077 73.3608C179.127 73.3608 179.186 73.374 179.237 73.4015C179.285 73.4266 179.298 73.4485 179.285 73.4328L177.718 74.6748C178.032 75.0714 178.494 75.3608 179.077 75.3608V73.3608ZM179.285 73.4328C179.274 73.4182 179.258 73.399 179.258 73.3269H177.258C177.258 73.8149 177.405 74.2803 177.718 74.6748L179.285 73.4328ZM179.258 73.3269C179.258 73.2549 179.274 73.2357 179.285 73.221L177.718 71.979C177.405 72.3736 177.258 72.839 177.258 73.3269H179.258ZM179.285 73.221C179.298 73.2053 179.285 73.2272 179.237 73.2523C179.186 73.2799 179.127 73.2931 179.077 73.2931V71.2931C178.494 71.2931 178.032 71.5824 177.718 71.979L179.285 73.221ZM179.077 73.2931C179.028 73.2931 178.969 73.2799 178.918 73.2523C178.87 73.2272 178.857 73.2053 178.87 73.221L180.437 71.979C180.123 71.5824 179.661 71.2931 179.077 71.2931V73.2931ZM178.87 73.221C178.881 73.2356 178.897 73.2548 178.897 73.3269H180.897C180.897 72.839 180.75 72.3736 180.437 71.979L178.87 73.221ZM178.897 73.3269C178.897 73.399 178.881 73.4182 178.87 73.4328L180.437 74.6748C180.75 74.2802 180.897 73.8148 180.897 73.3269H178.897ZM178.87 73.4328C178.857 73.4485 178.87 73.4266 178.918 73.4015C178.969 73.374 179.028 73.3608 179.077 73.3608V75.3608C179.661 75.3608 180.123 75.0714 180.437 74.6748L178.87 73.4328ZM192.312 78.8837V79.9176H194.312V78.8837H192.312ZM193.312 78.9176H185.531V80.9176H193.312V78.9176ZM186.531 79.9176V78.8837H184.531V79.9176H186.531ZM185.531 79.8837H193.312V77.8837H185.531V79.8837ZM189.244 103.696V74.8131H187.244V103.696H189.244ZM189.244 74.8131C189.244 73.7661 189.428 72.9138 189.759 72.2261L187.957 71.3586C187.469 72.3724 187.244 73.5339 187.244 74.8131H189.244ZM189.756 72.2334C190.109 71.5149 190.552 71.001 191.071 70.6491L189.948 68.9941C189.101 69.5684 188.444 70.3683 187.961 71.3513L189.756 72.2334ZM191.066 70.6524C191.599 70.2953 192.153 70.127 192.749 70.127V68.127C191.741 68.127 190.802 68.4218 189.953 68.9909L191.066 70.6524ZM192.749 70.127C192.987 70.127 193.178 70.1522 193.328 70.1915L193.833 68.2564C193.489 68.1664 193.125 68.127 192.749 68.127V70.127ZM193.328 70.1915C193.52 70.2416 193.71 70.3088 193.899 70.394L194.721 68.5707C194.432 68.4406 194.136 68.3355 193.833 68.2564L193.328 70.1915ZM193.343 69.227L193.087 70.1963L195.021 70.7069L195.277 69.7377L193.343 69.227ZM194.429 69.5244C194.18 69.4237 193.93 69.3399 193.681 69.2745L193.173 71.2087C193.333 71.2509 193.502 71.3071 193.68 71.3788L194.429 69.5244ZM193.681 69.2745C193.381 69.1955 193.068 69.1608 192.749 69.1608V71.1608C192.924 71.1608 193.064 71.18 193.173 71.2087L193.681 69.2745ZM192.749 69.1608C191.443 69.1608 190.322 69.7281 189.419 70.7377L190.909 72.0716C191.49 71.4228 192.092 71.1608 192.749 71.1608V69.1608ZM189.415 70.742C188.475 71.8037 188.063 73.2016 188.063 74.8131H190.063C190.063 73.5384 190.385 72.664 190.913 72.0673L189.415 70.742ZM188.063 74.8122L188.037 103.695L190.037 103.696L190.063 74.8139L188.063 74.8122ZM189.037 102.696H188.244V104.696H189.037V102.696ZM199.381 112C199.167 112 198.915 111.962 198.62 111.869L198.018 113.776C198.474 113.92 198.93 114 199.381 114V112ZM198.595 111.861C198.294 111.775 197.979 111.647 197.65 111.471L196.71 113.236C197.149 113.47 197.593 113.654 198.043 113.784L198.595 111.861ZM198.127 112.675L198.434 111.771L196.54 111.128L196.233 112.032L198.127 112.675ZM197.015 112.331C197.988 112.852 198.991 113.101 199.975 112.917L199.607 110.951C199.209 111.025 198.676 110.951 197.959 110.568L197.015 112.331ZM199.958 112.92C200.959 112.75 201.781 112.173 202.427 111.331L200.84 110.114C200.429 110.65 200.022 110.881 199.624 110.948L199.958 112.92ZM202.422 111.337C203.068 110.51 203.557 109.412 203.927 108.103L202.002 107.559C201.673 108.727 201.275 109.556 200.845 110.107L202.422 111.337ZM203.926 108.105L204.976 104.422L203.052 103.874L202.003 107.557L203.926 108.105ZM204.976 103.875L197.809 78.6108L195.885 79.1566L203.052 104.421L204.976 103.875ZM196.847 79.8837H197.718V77.8837H196.847V79.8837ZM196.755 79.156L203.41 102.676L205.335 102.131L198.68 78.6115L196.755 79.156ZM204.372 103.403H204.475V101.403H204.372V103.403ZM205.437 102.676L212.092 79.156L210.167 78.6115L203.513 102.131L205.437 102.676ZM211.13 79.8837H212V77.8837H211.13V79.8837ZM211.037 78.6125L202.77 107.947L204.695 108.49L212.963 79.155L211.037 78.6125ZM202.77 107.948C202.498 108.918 202.167 109.7 201.792 110.313L203.498 111.358C203.992 110.549 204.387 109.587 204.695 108.489L202.77 107.948ZM201.792 110.313C201.414 110.93 201.015 111.349 200.609 111.616L201.711 113.285C202.415 112.821 203.005 112.162 203.498 111.358L201.792 110.313ZM200.603 111.62C200.217 111.879 199.817 112 199.381 112V114C200.225 114 201.011 113.755 201.717 113.281L200.603 111.62Z" fill="black" mask="url(#path-2-outside-1_3_11)"/>
</svg>
